<?xml version="1.0" standalone="no"?>
<!DOCTYPE svg PUBLIC "-//W3C//DTD SVG 20010904//EN"
 "http://www.w3.org/TR/2001/REC-SVG-20010904/DTD/svg10.dtd">
<svg version="1.0" xmlns="http://www.w3.org/2000/svg"
 width="717.000000pt" height="717.000000pt" viewBox="0 0 717.000000 717.000000"
 preserveAspectRatio="xMidYMid meet">
<metadata>
Created by potrace 1.11, written by Peter Selinger 2001-2013
</metadata>
<g transform="translate(0.000000,717.000000) scale(0.100000,-0.100000)"
fill="#000000" stroke="none">
<path d="M3220 6804 c0 -8 -4 -13 -8 -10 -5 3 -25 -4 -45 -14 -20 -11 -43 -20
-51 -20 -20 0 -101 -69 -147 -125 -40 -48 -52 -98 -29 -121 7 -7 7 -27 -1 -63
-8 -39 -8 -60 0 -78 6 -13 8 -36 5 -50 -7 -27 13 -126 31 -158 7 -11 13 -45
14 -75 2 -54 1 -55 -16 -34 -36 43 -103 62 -103 29 0 -7 -15 -25 -32 -39 -18
-15 -38 -31 -45 -36 -7 -6 -10 -28 -8 -55 l3 -45 -116 0 c-83 1 -124 5 -142
15 -51 29 -118 9 -205 -64 -27 -22 -81 -57 -120 -78 -109 -57 -122 -69 -130
-120 -8 -57 -40 -96 -67 -82 -10 6 -27 7 -37 4 -24 -7 -156 -102 -197 -141
-49 -46 -82 -67 -158 -99 -71 -30 -71 -31 -107 -105 -41 -84 -65 -176 -55
-213 8 -34 419 -433 504 -490 37 -25 87 -64 111 -88 42 -39 47 -41 75 -31 32
13 41 9 101 -42 28 -24 29 -27 12 -37 -10 -6 -27 -32 -38 -57 -16 -37 -18 -51
-9 -73 15 -35 72 -63 114 -56 46 7 58 -17 58 -117 0 -90 3 -102 25 -85 12 10
16 10 24 -2 12 -19 11 -32 -1 -24 -5 3 -10 2 -10 -4 0 -5 5 -11 11 -13 11 -4
31 -240 23 -280 -2 -13 -2 -18 2 -11 3 7 23 -23 45 -66 22 -44 60 -102 84
-129 25 -28 45 -53 45 -56 0 -3 -17 -6 -39 -6 -30 0 -47 8 -84 40 -53 47 -72
93 -64 159 5 38 4 41 -4 21 -16 -37 -6 -126 17 -157 38 -50 72 -68 142 -73 66
-5 67 -5 68 -35 0 -16 -1 -33 -3 -36 -6 -13 -209 53 -298 96 -97 48 -114 51
-250 40 -108 -9 -318 21 -422 60 -39 15 -87 25 -117 25 -29 0 -77 5 -107 10
-30 6 -154 12 -277 14 -123 2 -226 6 -229 9 -2 3 -7 34 -10 69 -5 69 -21 121
-33 113 -5 -3 -12 0 -16 6 -4 8 -3 9 4 5 7 -4 12 -3 12 3 0 15 -12 20 -91 32
-41 6 -93 20 -116 30 -52 24 -69 24 -82 2 -9 -15 -12 -15 -19 -5 -5 8 -12 13
-16 13 -33 -5 -56 1 -56 14 0 22 -21 18 -27 -6 -3 -12 -11 -18 -19 -15 -8 3
-14 2 -14 -3 0 -15 -49 -19 -54 -5 -7 17 -49 22 -61 7 -7 -9 -19 -10 -40 -4
-16 5 -24 10 -17 10 7 1 11 5 7 10 -3 6 26 9 74 8 l79 -2 -16 40 c-21 56 -32
68 -48 54 -9 -7 -19 -7 -33 1 -24 12 -26 21 -10 37 47 47 -141 173 -281 189
-36 4 -68 12 -72 18 -4 6 -8 -926 -8 -2071 l0 -2083 2105 0 c1397 0 2105 3
2105 10 0 6 5 10 11 10 5 0 8 -4 4 -10 -8 -14 334 -13 352 1 9 9 13 8 13 0 0
-6 9 -11 21 -11 11 0 17 5 14 10 -3 6 1 10 9 10 8 0 17 -4 20 -9 9 -14 100
-11 108 2 6 9 8 9 8 0 0 -10 262 -13 1200 -13 l1200 0 0 230 c0 182 -3 230
-13 224 -9 -6 -9 -5 0 7 15 19 17 603 2 593 -5 -3 -23 1 -39 10 -21 10 -30 11
-30 3 0 -9 -2 -9 -8 0 -4 7 -19 16 -32 22 -21 8 -22 10 -6 10 19 1 19 1 1 14
-12 9 -14 16 -7 21 6 4 20 -2 31 -13 11 -11 22 -17 25 -14 3 4 14 -1 23 -9 10
-8 26 -18 35 -21 17 -6 18 12 17 278 -1 271 -2 285 -20 285 -13 0 -17 5 -12
17 4 11 8 12 11 5 9 -29 22 -8 22 38 0 38 -4 50 -15 50 -8 0 -15 -5 -15 -12 0
-9 -3 -9 -12 0 -18 18 -38 15 -31 -5 5 -15 3 -15 -11 2 -10 11 -15 15 -12 9 3
-6 -1 -11 -8 -11 -8 0 -12 6 -9 14 6 16 -7 17 -44 2 -15 -7 -38 -12 -50 -13
-12 -1 -25 -5 -30 -10 -5 -5 2 -6 17 -3 l25 6 -24 -20 c-20 -16 -34 -18 -89
-14 -75 7 -87 11 -46 20 16 4 38 10 49 15 11 5 30 11 42 15 11 3 24 12 26 19
8 21 -4 56 -18 56 -7 0 -15 6 -18 13 -3 9 -8 9 -21 -2 -13 -11 -22 -11 -41 -3
-15 7 -25 8 -25 2 0 -6 5 -10 10 -10 6 0 10 -4 10 -9 0 -6 -12 -6 -31 1 -23 8
-27 13 -17 19 10 7 10 9 -3 9 -17 0 -60 -29 -44 -30 6 0 3 -5 -5 -10 -13 -9
-13 -10 1 -10 8 0 20 5 27 12 8 8 12 8 12 1 0 -17 -26 -34 -44 -27 -11 4 -14
14 -10 33 12 52 16 61 27 61 7 0 -5 15 -26 34 -31 27 -35 35 -24 45 8 6 35 12
61 13 25 1 46 6 46 10 0 12 -16 17 -30 8 -18 -11 -40 -2 -40 17 0 11 10 14 37
11 23 -2 38 2 41 10 3 9 -6 11 -31 8 l-36 -4 6 46 c3 26 9 49 14 50 15 6 10
22 -6 22 -21 0 -19 18 2 22 15 3 14 6 -7 26 -28 26 -20 29 16 6 19 -13 28 -14
37 -5 16 16 27 14 28 -6 0 -11 3 -13 6 -5 2 6 9 12 14 12 4 0 6 -7 3 -15 -4
-8 -1 -15 5 -15 6 0 11 6 11 13 0 7 5 5 11 -5 5 -9 16 -15 24 -12 7 3 48 -1
90 -10 43 -9 99 -16 126 -16 l49 0 -1 798 c-1 438 -4 787 -6 775 -2 -13 -10
-23 -16 -23 -7 0 -25 -16 -40 -35 -36 -45 -46 -44 -37 4 6 36 50 108 50 82 0
-6 5 -11 11 -11 5 0 8 4 4 9 -3 5 4 12 15 16 19 6 20 15 20 155 0 93 -4 151
-10 155 -8 5 -7 11 0 20 7 8 10 21 8 29 -2 11 -26 -1 -93 -46 -88 -59 -92 -61
-170 -66 -45 -3 -90 -11 -103 -20 -17 -11 -25 -12 -36 -3 -11 9 -22 9 -49 -2
-57 -24 -56 -42 2 -39 8 0 20 -6 28 -14 8 -8 22 -14 31 -14 14 0 14 -2 3 -9
-8 -5 -11 -16 -8 -25 7 -18 26 -13 77 21 37 25 55 30 44 12 -3 -6 0 -22 7 -36
12 -22 11 -27 -6 -39 -11 -8 -26 -12 -34 -9 -8 3 -38 0 -68 -6 -43 -10 -52
-15 -48 -30 4 -13 -5 -22 -38 -38 -54 -26 -72 -26 -98 -2 -14 13 -19 26 -14
40 5 17 1 23 -20 31 -27 10 -45 6 -45 -11 0 -5 -9 -18 -20 -29 -33 -33 -26
-50 20 -50 22 0 40 -4 40 -9 0 -5 7 -16 15 -25 14 -13 12 -16 -21 -22 -25 -4
-47 -2 -69 9 -31 15 -34 15 -51 -4 -15 -17 -31 -19 -128 -19 -67 0 -133 6
-166 15 -30 8 -93 18 -140 21 -79 6 -91 4 -166 -25 -71 -27 -223 -65 -232 -57
-1 2 5 19 13 39 29 70 14 76 -42 16 -28 -30 -45 -40 -62 -37 l-23 3 23 25 c13
14 38 35 54 47 26 19 28 22 12 28 -12 5 -26 -1 -43 -18 -14 -14 -32 -23 -40
-20 -9 3 -14 -2 -14 -16 0 -38 -81 -91 -126 -83 -14 3 -31 -17 -35 -41 -6 -27
-24 -20 -21 8 5 36 -5 31 -25 -12 -14 -30 -27 -41 -61 -52 -49 -15 -72 -10
-72 18 0 26 -15 34 -40 21 -26 -14 -25 -26 1 -33 12 -3 18 -10 15 -15 -11 -18
-90 -50 -138 -57 -26 -3 -50 -10 -53 -16 -10 -15 -58 -11 -52 5 9 22 -2 25
-39 10 -19 -8 -36 -14 -39 -14 -21 0 -25 -1 -25 -11 0 -7 7 -8 18 -4 36 15 52
17 52 6 0 -6 -10 -15 -23 -20 -13 -5 -29 -16 -36 -25 -7 -9 -22 -16 -33 -16
-16 0 -19 5 -16 25 3 15 1 25 -7 25 -19 0 -26 -12 -13 -27 17 -21 -9 -41 -56
-45 -48 -4 -55 12 -16 34 39 22 47 44 26 67 -16 17 -15 20 9 49 14 16 25 35
25 41 0 7 11 29 25 49 14 20 25 48 24 62 l0 25 -10 -23 c-5 -13 -18 -26 -28
-29 -13 -3 -21 -17 -26 -41 -7 -36 -42 -104 -57 -110 -13 -6 -9 -22 5 -19 6 1
12 -7 12 -18 0 -15 -7 -20 -25 -20 -38 0 -72 -23 -65 -44 4 -13 -5 -23 -39
-40 -37 -19 -53 -22 -98 -16 -29 4 -63 13 -76 21 -29 19 -104 15 -100 -6 2 -8
-18 -25 -49 -42 -71 -38 -130 -30 -187 24 -26 25 -169 137 -205 161 -14 9 -25
23 -23 31 3 19 -36 46 -65 46 -17 0 -23 6 -23 21 0 34 -121 140 -163 143 -11
1 -37 36 -37 49 0 6 10 -1 23 -14 12 -13 42 -31 67 -39 25 -8 48 -18 51 -23
13 -19 31 62 36 160 6 113 -6 180 -39 209 -27 25 -82 23 -111 -4 -14 -13 -36
-22 -55 -22 -18 0 -32 -5 -32 -12 0 -17 -47 30 -53 54 -4 15 2 23 27 33 25 11
35 22 40 46 12 59 6 104 -19 148 -40 70 -39 71 75 71 54 0 124 7 155 15 31 8
62 12 70 8 49 -18 100 38 130 141 21 73 12 184 -20 241 -12 22 -31 63 -41 90
-9 28 -31 70 -47 95 -25 37 -30 56 -32 109 -1 53 -5 67 -23 82 -21 16 -21 21
-10 62 10 39 9 49 -5 71 -10 15 -15 35 -12 49 4 15 -1 32 -13 47 -11 14 -23
41 -27 60 -4 19 -13 42 -20 50 -7 8 -18 32 -24 52 -7 21 -17 40 -22 43 -14 10
-11 25 6 25 9 0 27 -7 40 -16 14 -9 32 -13 41 -10 32 12 8 39 -63 70 -40 18
-75 35 -78 38 -3 3 -6 41 -6 84 -1 91 -11 108 -71 125 l-40 10 26 32 c45 55
75 122 86 193 6 37 13 71 16 76 3 4 -5 23 -17 41 -19 26 -20 29 -4 17 17 -14
18 -13 12 2 -3 10 -2 20 3 23 6 4 11 -9 11 -27 1 -18 9 26 19 97 10 78 14 151
10 180 -6 50 -31 108 -50 120 -6 4 -8 11 -4 16 3 6 -4 13 -16 16 -22 6 -22 7
-5 20 11 7 13 13 6 13 -7 0 -9 5 -5 13 5 9 4 9 -5 1 -9 -8 -20 -4 -42 17 -17
16 -36 26 -45 22 -10 -4 -17 2 -21 16 -6 22 -23 29 -23 9 0 -6 -8 -4 -19 6
-11 10 -24 15 -29 12 -5 -3 -15 1 -22 9 -10 12 -16 13 -26 4 -10 -8 -14 -8
-14 0 0 6 -4 11 -10 11 -5 0 -10 -7 -10 -16z m55 -14 c3 -5 1 -10 -4 -10 -6 0
-11 5 -11 10 0 6 2 10 4 10 3 0 8 -4 11 -10z m176 -166 c17 -8 28 -18 25 -21
-3 -3 -16 1 -29 10 -12 8 -32 17 -42 20 -18 4 -18 5 -2 6 10 0 32 -6 48 -15z
m-37 -23 c3 -5 -1 -11 -9 -15 -8 -3 -17 0 -21 6 -4 7 -3 8 4 4 7 -4 12 -2 12
3 0 13 7 14 14 2z m-29 -41 c3 -5 1 -10 -4 -10 -6 0 -11 5 -11 10 0 6 2 10 4
10 3 0 8 -4 11 -10z m139 -59 c-3 -3 -15 6 -27 18 l-22 24 27 -19 c14 -10 24
-21 22 -23z m-35 -120 c29 -40 26 -46 -8 -22 -16 12 -36 21 -44 21 -18 0 -30
14 -20 24 16 16 53 4 72 -23z m-129 -101 c0 -22 44 -49 105 -65 25 -6 41 -17
43 -27 3 -13 -1 -16 -14 -11 -12 4 -15 3 -10 -6 5 -7 -13 -4 -44 8 l-52 20 6
-25 c7 -26 -8 -34 -18 -9 -3 8 -9 15 -13 14 -30 -5 -35 2 -30 51 3 29 1 53 -5
56 -6 4 -5 9 3 15 17 10 29 2 29 -21z m-181 -24 c58 -13 75 -30 41 -41 -14 -4
-33 3 -62 24 -23 17 -40 31 -37 31 2 -1 28 -7 58 -14z m141 -239 c0 10 6 10
25 1 19 -8 28 -8 40 2 8 7 15 8 15 2 0 -32 -79 -39 -120 -11 -12 9 -12 10 3 5
10 -3 17 0 17 7 0 8 4 6 10 -3 6 -10 10 -11 10 -3z m-7 -555 c29 -155 32 -182
19 -166 -20 22 -72 314 -56 314 5 0 22 -66 37 -148z m67 -67 l35 -40 -33 30
c-19 17 -38 39 -44 50 -6 11 -7 16 -2 10 5 -5 25 -28 44 -50z m130 -119 c0 5
-5 15 -12 22 -6 6 -9 14 -6 18 4 3 12 -4 18 -16 7 -14 8 -26 2 -32 -5 -5 -23
9 -46 39 l-38 48 41 -45 c23 -25 41 -40 41 -34z m34 -56 l17 -35 -20 25 c-11
14 -21 31 -21 39 0 18 4 14 24 -29z m-1200 -112 c10 -35 17 -86 17 -115 -1
-29 5 -68 15 -90 21 -48 32 -92 44 -168 21 -129 27 -153 48 -182 22 -31 28
-53 15 -53 -5 0 -32 23 -62 50 -30 27 -62 52 -70 56 -14 5 -144 144 -188 202
-15 20 -31 27 -65 31 -4 1 -21 22 -39 49 -17 26 -39 52 -48 59 -20 13 -76 92
-70 97 2 2 34 13 71 25 37 12 83 33 103 47 21 14 63 28 102 34 37 6 69 13 72
16 2 2 12 4 20 4 11 0 22 -19 35 -62z m1304 -209 c-3 -33 -4 -33 -8 8 -3 23
-2 39 3 34 5 -5 7 -24 5 -42z m-11 -71 c-3 -7 -5 -2 -5 12 0 14 2 19 5 13 2
-7 2 -19 0 -25z m-16 -45 c-12 -20 -14 -14 -5 12 4 9 9 14 11 11 3 -2 0 -13
-6 -23z m-317 -243 c16 0 46 -37 46 -57 0 -7 -11 -13 -25 -13 -14 0 -28 -7
-31 -15 -4 -8 -12 -15 -20 -15 -16 0 -18 -23 -4 -50 12 -23 -24 -79 -62 -98
-15 -7 -37 -27 -49 -44 -18 -25 -20 -34 -11 -49 7 -10 12 -22 12 -26 0 -5 -5
0 -11 9 -6 11 -16 15 -26 11 -10 -4 -14 -2 -10 4 4 6 0 13 -8 17 -23 8 -18 44
10 68 14 12 25 32 25 45 0 22 -3 23 -40 17 -36 -6 -40 -5 -40 15 0 18 -3 20
-19 11 -26 -13 -71 4 -71 26 0 16 -1 16 -18 1 -23 -21 -48 -22 -55 -3 -5 13
30 36 58 36 7 0 15 4 17 9 2 5 12 11 23 13 11 1 34 12 50 23 17 12 50 29 75
40 25 10 52 24 60 31 23 19 62 22 87 7 12 -7 29 -13 37 -13z m136 10 c0 -11
-7 -20 -15 -20 -17 0 -18 2 -9 24 9 23 24 20 24 -4z m-50 0 c8 -5 11 -10 5
-10 -5 0 -17 5 -25 10 -8 5 -10 10 -5 10 6 0 17 -5 25 -10z m-961 -62 c17 -17
23 -19 35 -9 21 17 65 6 149 -38 43 -22 73 -45 78 -59 5 -12 20 -39 34 -60 21
-31 23 -37 9 -45 -21 -12 -38 5 -52 51 -11 35 -66 91 -79 79 -2 -3 3 -26 11
-51 9 -26 16 -59 16 -73 0 -29 36 -140 52 -160 8 -9 6 -13 -6 -13 -17 0 -66
93 -66 124 0 8 -10 16 -22 19 -16 4 -23 14 -24 32 -1 14 2 25 6 25 14 0 5 35
-16 65 -12 17 -25 41 -29 55 -9 28 -29 50 -46 50 -8 0 -8 -4 -1 -13 17 -20 -2
-40 -29 -31 -13 4 -27 7 -31 6 -4 -1 -5 4 -2 12 3 8 1 17 -5 21 -11 6 -16 35
-6 35 2 0 13 -10 24 -22z m34 -98 c-6 -23 -19 -26 -26 -6 -5 13 5 23 25 25 3
1 4 -8 1 -19z m-173 -58 c0 -5 -11 -14 -25 -20 -29 -13 -33 -5 -7 14 20 15 32
18 32 6z m790 -11 c0 -5 -5 -11 -10 -13 -6 -2 -12 -13 -14 -25 -10 -50 -54
-90 -71 -63 -9 15 21 76 46 94 26 18 49 21 49 7z m-550 -54 c0 -4 -9 -2 -20 5
-11 7 -20 22 -20 33 0 18 2 18 20 -5 11 -14 20 -28 20 -33z m440 34 c0 -22
-41 -85 -55 -83 -17 3 -12 51 6 68 10 9 16 21 13 25 -3 5 4 9 15 9 14 0 21 -6
21 -19z m-660 -50 c0 -5 3 -18 7 -28 6 -16 5 -16 -10 -4 -19 15 -23 41 -7 41
6 0 10 -4 10 -9z m-30 -14 c0 -8 9 -22 20 -32 18 -17 19 -20 5 -28 -11 -6 -24
-3 -41 7 -26 18 -30 36 -12 54 16 16 28 15 28 -1z m922 -17 c3 -21 1 -27 -6
-20 -13 13 -18 50 -7 50 5 0 11 -14 13 -30z m-438 -22 c11 -43 5 -48 -28 -23
-16 12 -17 17 -6 30 17 21 27 19 34 -7z m-70 -41 c-5 -9 -3 -8 6 0 11 10 16 8
24 -10 9 -16 23 -23 58 -27 59 -7 74 -20 23 -20 -44 0 -125 43 -125 66 0 8 5
12 10 9 6 -4 7 -12 4 -18z m422 14 c-3 -4 4 -17 17 -27 12 -10 16 -12 10 -4
-18 20 -16 35 2 20 9 -7 13 -20 10 -29 -3 -10 6 -32 20 -50 13 -19 21 -39 17
-45 -4 -7 -8 -4 -10 7 -2 9 -7 17 -11 17 -3 0 -15 14 -24 30 -10 17 -24 30
-30 30 -17 0 -38 48 -23 54 18 7 27 7 22 -3z m110 -3 c4 -6 3 -8 -4 -4 -13 8
-26 -10 -17 -24 5 -7 11 -8 19 -1 8 7 20 0 40 -25 23 -29 27 -41 22 -70 -4
-19 -12 -34 -18 -34 -6 0 -2 -10 9 -22 45 -49 53 -98 18 -112 -11 -4 -13 1 -8
24 3 16 2 37 -2 47 -6 15 -9 13 -20 -12 -12 -28 -13 -28 -14 -6 -1 21 -3 22
-18 10 -15 -13 -15 -12 -2 8 10 18 11 31 2 63 -8 33 -8 40 2 36 16 -6 27 31
11 38 -8 3 -8 7 1 13 9 6 7 12 -8 21 -19 12 -20 11 -14 -7 11 -35 -3 -23 -26
20 -11 23 -16 38 -10 35 5 -4 12 -2 16 4 8 13 12 13 21 -2z m-76 -125 c-1 -5
-7 -19 -15 -33 l-14 -25 -1 26 c0 14 3 29 7 32 9 9 23 9 23 0z m3978 -39 c7
-4 -62 -34 -78 -34 -10 0 -23 -7 -30 -15 -7 -8 -21 -15 -31 -15 -10 0 -21 -9
-24 -20 -4 -13 -15 -20 -31 -20 -36 0 -29 11 29 50 92 62 130 79 147 67 8 -6
16 -12 18 -13z m-3501 -21 c14 -22 18 -48 18 -133 0 -58 -4 -118 -8 -134 -8
-28 -8 -28 -22 -9 -8 12 -26 24 -40 27 -32 8 -32 16 5 51 40 38 41 95 4 151
-15 21 -31 41 -36 42 -16 7 14 32 38 32 15 0 30 -10 41 -27z m-241 -15 l29
-33 -32 29 c-31 28 -38 36 -30 36 2 0 16 -15 33 -32z m-227 -19 c-7 -4 -5 -8
5 -12 23 -9 20 -32 -9 -64 -29 -33 -34 -17 -5 20 15 19 17 26 6 30 -7 3 -13
20 -14 39 -1 31 0 32 14 14 10 -14 11 -22 3 -27z m416 -40 c9 -16 15 -47 13
-67 -2 -31 -9 -40 -36 -52 -18 -9 -30 -19 -27 -22 8 -8 -44 -20 -55 -13 -6 4
-9 23 -8 43 l1 37 4 -32 c2 -18 9 -33 14 -33 15 0 39 65 46 121 7 57 25 64 48
18z m-459 -26 c-10 -26 -18 -8 -9 23 5 21 8 24 11 11 2 -10 1 -25 -2 -34z
m364 15 c0 -16 -3 -19 -11 -11 -6 6 -8 16 -5 22 11 17 16 13 16 -11z m-420 -8
c0 -11 -4 -20 -9 -20 -5 0 -7 9 -4 20 3 11 7 20 9 20 2 0 4 -9 4 -20z m-3005
-10 c7 -12 -2 -12 -30 0 -19 8 -19 9 2 9 12 1 25 -3 28 -9z m3032 -27 c-3 -10
-5 -4 -5 12 0 17 2 24 5 18 2 -7 2 -21 0 -30z m133 17 c0 -5 -9 -14 -21 -20
-19 -11 -20 -10 -9 9 11 22 30 29 30 11z m196 -27 c-10 -10 -19 5 -10 18 6 11
8 11 12 0 2 -7 1 -15 -2 -18z m51 1 c-3 -3 -12 -4 -19 -1 -8 3 -5 6 6 6 11 1
17 -2 13 -5z m-360 -36 c-3 -7 -5 -2 -5 12 0 14 2 19 5 13 2 -7 2 -19 0 -25z
m153 0 c11 -12 20 -29 20 -37 0 -12 -6 -9 -19 8 -10 13 -23 21 -28 18 -6 -4
-16 -1 -22 7 -9 11 -9 15 1 19 22 9 27 8 48 -15z m3784 -10 c-13 -23 -37 -48
-46 -48 -13 0 -9 22 9 42 18 20 48 25 37 6z m-3810 -18 c14 -5 26 -16 26 -25
0 -11 -12 -15 -51 -15 -58 0 -59 19 -1 21 27 1 31 3 12 6 -30 6 -51 23 -28 23
9 0 28 -4 42 -10z m-2894 -9 c0 -23 -14 -41 -31 -41 -24 0 -25 26 -1 39 22 13
32 14 32 2z m400 -5 c0 -11 -19 -15 -25 -6 -3 5 1 10 9 10 9 0 16 -2 16 -4z
m2694 -28 c14 -18 26 -27 26 -20 0 6 5 12 10 12 7 0 7 -8 -1 -22 -11 -21 -12
-21 -25 -2 -8 10 -23 29 -35 42 -12 12 -16 22 -11 22 6 0 22 -15 36 -32z
m-3327 5 c-3 -2 -19 -5 -36 -5 -17 -1 -31 -5 -31 -10 0 -4 -5 -8 -11 -8 -23 0
12 29 39 32 28 4 47 -1 39 -9z m353 13 c0 -3 -4 -8 -10 -11 -5 -3 -10 -1 -10
4 0 6 5 11 10 11 6 0 10 -2 10 -4z m6466 -4 c6 -4 14 -23 18 -44 6 -34 4 -37
-25 -52 -18 -9 -38 -16 -46 -16 -7 0 -16 -7 -19 -15 -8 -19 -32 -19 -75 -1
-19 8 -55 17 -81 21 -48 7 -68 26 -25 23 12 -1 40 7 62 17 22 11 57 20 78 20
27 1 46 10 65 28 29 29 32 30 48 19z m-6736 -6 c0 -3 -4 -8 -10 -11 -5 -3 -10
-1 -10 4 0 6 5 11 10 11 6 0 10 -2 10 -4z m-35 -15 c7 -12 -12 -24 -25 -16
-11 7 -4 25 10 25 5 0 11 -4 15 -9z m660 -1 c3 -5 1 -10 -4 -10 -6 0 -11 5
-11 10 0 6 2 10 4 10 3 0 8 -4 11 -10z m2498 -57 c18 -38 32 -74 31 -80 -1 -7
-2 -16 -3 -20 0 -3 -11 2 -23 13 -13 10 -17 12 -10 4 6 -8 12 -18 12 -22 0
-15 -34 -4 -48 15 -7 9 -17 15 -22 12 -5 -3 -11 -1 -15 5 -3 5 1 10 10 10 13
0 14 4 5 20 -7 12 -21 20 -38 20 -33 0 -59 15 -43 24 23 15 81 -6 106 -38 29
-36 32 -31 8 19 -14 29 -22 35 -47 35 -17 0 -38 5 -46 10 -11 7 -6 10 21 10
20 0 42 7 49 15 7 8 14 15 16 15 2 0 19 -30 37 -67z m71 49 c3 -5 -1 -9 -9 -9
-8 0 -12 4 -9 9 3 4 7 8 9 8 2 0 6 -4 9 -8z m-289 -13 c11 -17 -1 -21 -15 -4
-8 9 -8 15 -2 15 6 0 14 -5 17 -11z m-3051 -38 c-6 -6 -24 19 -24 34 1 6 7 1
15 -9 8 -11 12 -22 9 -25z m673 23 c2 -7 -8 -11 -26 -10 -23 1 -27 4 -19 14
13 15 40 12 45 -4z m63 6 c0 -5 -4 -10 -10 -10 -5 0 -10 5 -10 10 0 6 5 10 10
10 6 0 10 -4 10 -10z m2630 -31 c0 -6 -4 -7 -10 -4 -5 3 -10 11 -10 16 0 6 5
7 10 4 6 -3 10 -11 10 -16z m-3225 -19 c3 -5 1 -10 -4 -10 -6 0 -11 5 -11 10
0 6 2 10 4 10 3 0 8 -4 11 -10z m3242 -22 c-3 -8 -6 -5 -6 6 -1 11 2 17 5 13
3 -3 4 -12 1 -19z m3728 12 c-3 -5 -11 -10 -16 -10 -6 0 -7 5 -4 10 3 6 11 10
16 10 6 0 7 -4 4 -10z m-3602 -27 c6 17 37 24 37 9 0 -5 -16 -29 -35 -53 -19
-25 -41 -63 -48 -84 -8 -21 -20 -41 -27 -43 -9 -3 -11 1 -7 12 4 9 2 16 -3 16
-15 0 -12 24 10 75 11 25 24 43 30 40 6 -4 13 8 17 27 6 32 7 32 13 8 5 -21 7
-22 13 -7z m-3093 11 c0 -3 -7 -12 -15 -20 -8 -9 -15 -13 -15 -11 0 3 -3 12
-6 21 -4 12 0 16 15 16 12 0 21 -3 21 -6z m290 -24 c0 -5 -4 -10 -10 -10 -5 0
-10 5 -10 10 0 6 5 10 10 10 6 0 10 -4 10 -10z m6369 -39 c-15 -5 -22 6 -14
19 6 9 10 9 16 -1 5 -8 4 -15 -2 -18z m-1719 -20 c0 -12 -29 -23 -41 -15 -5 3
-7 10 -4 15 8 12 45 12 45 0z m-4984 -16 c-26 -19 -42 -19 -26 0 7 8 20 15 29
15 13 -1 13 -3 -3 -15z m2897 -151 c-3 -8 -10 -11 -17 -7 -6 4 -22 9 -35 11
-21 3 -23 0 -16 -25 3 -15 8 -29 9 -31 8 -7 54 18 59 32 9 22 27 20 27 -3 0
-45 -243 -151 -308 -134 -23 5 -20 8 29 24 30 10 44 18 33 18 -24 1 -41 31
-23 41 6 4 9 18 7 31 -3 21 -8 24 -42 22 -48 -3 -53 -8 -33 -28 10 -9 18 -11
22 -5 9 15 25 2 25 -21 0 -21 -12 -24 -41 -9 -17 10 -19 7 -20 -22 0 -31 -1
-32 -11 -10 -13 26 -38 30 -38 5 0 -30 -18 0 -22 37 l-4 35 -11 -35 c-9 -27
-11 -30 -12 -12 -1 15 -5 21 -13 16 -6 -4 -26 -8 -42 -9 -17 -1 -38 -4 -46 -6
-9 -2 -16 4 -18 17 -3 19 3 22 55 30 32 4 61 8 66 10 4 1 22 2 40 3 24 1 28 4
17 11 -13 8 -12 10 5 11 14 1 10 4 -10 9 -28 7 -28 8 -5 9 14 0 36 -2 49 -6
23 -6 23 -7 5 -14 -17 -7 -17 -8 -1 -8 10 -1 28 5 40 11 21 12 21 13 -13 20
-23 4 -12 5 29 2 35 -2 61 -1 57 3 -4 5 32 13 81 18 81 10 90 9 110 -8 12 -11
19 -25 16 -33z m37 46 c0 -5 -7 -10 -15 -10 -8 0 -15 5 -15 10 0 6 7 10 15 10
8 0 15 -4 15 -10z m-1370 -40 c0 -5 -5 -10 -11 -10 -5 0 -7 5 -4 10 3 6 8 10
11 10 2 0 4 -4 4 -10z m1455 -80 c7 -24 6 -24 -7 -5 -8 11 -18 29 -22 40 -6
18 -5 18 7 5 8 -8 18 -26 22 -40z m-3248 -25 c2 -6 -16 -10 -39 -10 -24 0 -52
-3 -62 -5 -24 -6 -33 17 -9 23 30 8 106 3 110 -8z m1753 -10 c0 -8 -4 -15 -9
-15 -5 0 -11 7 -15 15 -3 9 0 15 9 15 8 0 15 -7 15 -15z m-60 -11 c0 -9 -5
-14 -12 -12 -18 6 -21 28 -4 28 9 0 16 -7 16 -16z m980 6 c0 -5 -10 -10 -22
-9 -22 0 -22 1 -3 9 11 5 21 9 23 9 1 1 2 -3 2 -9z m599 -25 c11 -19 17 -35
13 -35 -5 0 -16 16 -25 35 -9 19 -15 35 -13 35 2 0 13 -16 25 -35z m-1419 -2
c0 -54 5 -83 13 -83 13 0 30 -21 54 -65 19 -35 20 -45 10 -78 -11 -35 -27 -50
-27 -25 0 6 -3 9 -6 6 -3 -4 13 -25 35 -47 52 -52 72 -100 69 -168 -2 -47 -4
-52 -15 -37 -7 10 -13 33 -13 52 0 26 -8 41 -39 69 -22 19 -45 49 -52 66 -7
18 -21 43 -31 56 -10 13 -18 30 -18 37 0 19 26 18 34 -2 3 -8 10 -13 16 -9 12
8 -10 45 -27 45 -6 0 -15 5 -19 12 -5 8 -2 9 9 5 26 -10 20 16 -11 51 -34 38
-47 41 -38 10 15 -51 15 -66 2 -77 -11 -9 -20 -9 -35 -2 -44 24 -56 1 -20 -37
13 -15 19 -32 17 -50 -4 -27 -4 -27 -21 10 -9 20 -30 46 -47 58 -17 12 -29 27
-27 34 2 6 1 20 -4 32 -4 11 -3 27 2 35 6 10 9 10 9 2 0 -7 7 -13 15 -13 8 0
15 -4 15 -10 0 -5 8 -10 18 -10 16 1 16 1 0 14 -10 7 -18 18 -18 23 0 6 -6 16
-14 23 -8 6 -12 18 -9 27 5 13 9 12 22 -5 20 -26 71 -20 71 9 0 24 18 33 36
18 18 -15 26 -8 28 25 2 35 15 33 16 -1z m740 -3 c26 -14 15 -38 -15 -32 -16
3 -23 10 -22 23 1 21 10 23 37 9z m770 -24 c0 -14 -3 -27 -7 -29 -5 -3 -8 8
-8 24 0 16 3 29 8 29 4 0 7 -11 7 -24z m-2861 -12 c12 -15 21 -31 21 -37 0 -6
8 -19 17 -30 17 -18 17 -20 -5 -37 -19 -16 -21 -25 -16 -59 4 -22 10 -38 15
-35 5 3 9 -2 9 -10 0 -9 -7 -16 -16 -16 -8 0 -12 -4 -9 -10 7 -12 3 -12 -19
-4 -9 3 -16 10 -16 16 0 5 5 6 10 3 14 -9 13 1 -5 34 -8 16 -21 31 -30 35 -11
4 -15 15 -13 33 3 28 15 33 49 19 12 -5 14 0 11 28 -3 23 -11 37 -22 41 -27 9
-35 55 -9 55 4 0 17 -12 28 -26z m1127 -30 c-4 -9 -9 -15 -11 -12 -3 3 -3 13
1 22 4 9 9 15 11 12 3 -3 3 -13 -1 -22z m2364 -11 c28 -35 50 -89 49 -117 0
-12 -7 -3 -16 24 -8 25 -28 62 -45 83 -16 20 -25 37 -19 37 5 0 19 -12 31 -27z
m-1486 0 c4 -9 3 -20 -2 -25 -6 -6 -11 1 -14 16 -6 29 6 35 16 9z m-914 -2 c0
-5 -7 -12 -16 -15 -24 -9 -28 -7 -14 9 14 17 30 20 30 6z m-1205 -68 c17 -25
17 -27 -1 -40 -27 -20 -32 -16 -29 25 4 53 5 54 30 15z m905 2 c-7 -9 -15 -13
-17 -11 -7 7 7 26 19 26 6 0 6 -6 -2 -15z m1568 -17 c29 -29 8 -70 -36 -67
-10 1 -6 4 8 8 27 8 38 37 21 54 -9 9 -13 6 -17 -9 -7 -27 -54 -21 -54 7 0 15
7 19 33 19 18 0 38 -5 45 -12z m-2542 -46 c-22 -22 -29 -10 -8 16 9 12 19 16
21 11 2 -6 -4 -18 -13 -27z m1348 -13 c-3 -5 -11 -9 -17 -9 -7 0 -6 4 3 10 8
5 10 10 4 10 -7 0 -15 8 -18 17 -6 15 -5 15 13 -1 11 -10 18 -23 15 -27z
m1721 -19 c-3 -6 -12 -10 -18 -9 -9 0 -9 2 0 5 9 4 9 13 2 30 -14 37 -10 43 7
11 8 -15 12 -32 9 -37z m-195 41 c0 -6 -5 -13 -12 -17 -6 -4 -8 -3 -4 4 3 5 0
13 -6 15 -8 3 -6 6 5 6 9 1 17 -3 17 -8z m250 -21 c0 -5 -9 -10 -21 -10 -11 0
-17 5 -14 10 3 6 13 10 21 10 8 0 14 -4 14 -10z m-3150 -19 c0 -6 -4 -13 -10
-16 -5 -3 -10 1 -10 9 0 9 5 16 10 16 6 0 10 -4 10 -9z m150 -7 c0 -8 -4 -12
-10 -9 -5 3 -10 10 -10 16 0 5 5 9 10 9 6 0 10 -7 10 -16z m2799 5 c11 17 41
7 41 -14 0 -14 12 -20 34 -16 4 1 14 -3 21 -9 7 -6 19 -8 26 -5 18 6 44 -14
53 -40 4 -14 15 -21 33 -22 16 -1 22 1 16 4 -7 2 -13 9 -13 15 0 6 6 6 15 -2
11 -9 12 -16 2 -31 -6 -10 -17 -19 -24 -19 -14 0 -18 -16 -5 -23 4 -3 29 -1
55 3 29 4 50 3 54 -3 3 -6 1 -7 -5 -3 -8 5 -12 -1 -12 -14 0 -12 -4 -19 -9
-16 -5 4 -11 1 -13 -4 -2 -6 -14 -12 -27 -13 -21 -1 -19 -5 21 -39 35 -31 40
-39 28 -47 -10 -7 -19 -6 -30 4 -14 12 -57 37 -159 91 -13 7 -37 10 -53 7 -27
-5 -28 -4 -28 35 0 45 -23 63 -42 33 -7 -11 -19 -16 -30 -13 -15 4 -18 15 -18
77 l0 73 30 -11 c25 -9 33 -9 39 2z m86 -7 c-3 -3 -11 0 -18 7 -9 10 -8 11 6
5 10 -3 15 -9 12 -12z m30 -12 c3 -5 1 -10 -4 -10 -6 0 -11 5 -11 10 0 6 2 10
4 10 3 0 8 -4 11 -10z m-2962 -41 c-8 -8 -13 -7 -18 2 -5 8 -4 10 3 5 7 -4 12
-2 12 5 0 7 3 9 7 6 4 -4 2 -12 -4 -18z m100 -10 c4 -16 3 -18 -9 -8 -16 13
-19 29 -5 29 5 0 11 -9 14 -21z m-73 -35 c0 -8 -4 -12 -10 -9 -5 3 -10 10 -10
16 0 5 5 9 10 9 6 0 10 -7 10 -16z m1023 -1 c-7 -2 -21 -2 -30 0 -10 3 -4 5
12 5 17 0 24 -2 18 -5z m2612 -12 c3 -5 1 -12 -5 -16 -5 -3 -10 1 -10 9 0 18
6 21 15 7z m323 -66 c7 -3 11 -9 8 -14 -6 -10 -33 -8 -60 4 -13 6 -21 5 -24
-3 -5 -16 -42 -15 -42 1 0 8 3 16 6 20 6 6 88 0 112 -8z m-1167 -15 c5 0 9 -9
9 -20 0 -30 48 -100 68 -100 44 0 186 -99 168 -117 -3 -3 -23 1 -43 10 -43 18
-144 47 -165 47 -7 0 1 -11 17 -25 19 -15 26 -27 20 -32 -17 -13 -12 -29 15
-52 14 -11 20 -20 14 -21 -5 0 -16 6 -22 12 -10 10 -17 10 -32 0 -18 -11 -19
-10 -13 19 5 29 4 31 -16 24 -12 -4 -21 -2 -21 4 0 6 -7 11 -15 11 -11 0 -16
10 -15 33 0 17 -3 49 -6 69 -5 32 -3 37 18 41 l23 4 -22 8 c-19 6 -23 15 -23
52 0 37 3 44 16 39 9 -3 20 -6 25 -6z m-2644 -26 c-3 -3 -12 -4 -19 -1 -8 3
-5 6 6 6 11 1 17 -2 13 -5z m3723 -32 c13 -11 11 -12 -12 -3 -20 8 -29 7 -38
-5 -7 -7 -16 -14 -21 -14 -16 0 -9 22 13 40 17 13 25 15 33 6 5 -6 17 -17 25
-24z m290 19 c0 -5 -9 -11 -21 -14 -16 -4 -18 -3 -8 9 13 16 29 19 29 5z
m-3994 -21 c0 -11 -3 -20 -7 -20 -10 0 -19 27 -12 34 12 11 19 6 19 -14z
m1799 -1 c4 -11 4 -23 0 -27 -7 -7 -25 17 -25 36 0 20 18 14 25 -9z m1945 12
c0 -17 -18 -21 -24 -6 -3 9 0 15 9 15 8 0 15 -4 15 -9z m-260 -42 c0 -5 -5 -7
-11 -3 -8 5 -8 1 0 -14 15 -28 14 -32 -4 -26 -8 4 -15 17 -15 30 0 15 6 24 15
24 8 0 15 -5 15 -11z m-3490 -19 c0 -5 -2 -10 -4 -10 -3 0 -8 5 -11 10 -3 6
-1 10 4 10 6 0 11 -4 11 -10z m1825 0 c3 -5 -1 -10 -9 -10 -9 0 -16 5 -16 10
0 6 4 10 9 10 6 0 13 -4 16 -10z m-1875 -10 c0 -5 -5 -10 -11 -10 -5 0 -7 5
-4 10 3 6 8 10 11 10 2 0 4 -4 4 -10z m12 -32 c-7 -7 -12 -8 -12 -2 0 14 12
26 19 19 2 -3 -1 -11 -7 -17z m1349 -4 c-12 -15 -21 -33 -21 -40 0 -8 -5 -14
-11 -14 -16 0 0 42 23 63 29 25 33 21 9 -9z m-76 -15 c-9 -17 -19 -28 -22 -25
-8 8 17 56 29 56 5 0 1 -14 -7 -31z m-921 -24 c-14 -19 -30 -32 -35 -29 -5 3
-9 -14 -9 -38 0 -30 -3 -39 -9 -28 -6 8 -7 19 -4 25 4 5 -6 -1 -21 -15 -30
-27 -85 -38 -63 -12 8 10 12 11 15 2 3 -8 10 -6 23 6 22 20 14 40 -9 23 -11
-9 -11 -6 2 7 13 14 20 16 23 6 6 -16 33 3 33 24 0 8 9 14 20 14 11 0 20 4 20
9 0 10 28 41 36 41 3 0 -7 -16 -22 -35z m1250 5 c-9 -16 -20 -30 -25 -30 -13
0 -11 13 7 38 22 32 35 27 18 -8z m-1444 16 c0 -3 -4 -8 -10 -11 -5 -3 -10 -1
-10 4 0 6 5 11 10 11 6 0 10 -2 10 -4z m701 -9 c0 -4 -5 -15 -11 -25 -11 -16
-11 -16 -6 1 3 11 1 17 -7 16 -25 -3 -38 1 -32 11 7 11 55 8 56 -3z m-653 -43
c2 -33 -1 -45 -10 -41 -14 5 -14 35 1 85 3 10 6 -5 9 -44z m1193 15 c-5 -13
-10 -19 -10 -12 -1 15 10 45 15 40 3 -2 0 -15 -5 -28z m-1389 -4 c3 -13 1 -22
-3 -19 -9 5 -13 44 -5 44 2 0 6 -11 8 -25z m798 -17 c-5 -55 0 -89 12 -82 8 5
9 2 5 -10 -5 -14 -3 -17 8 -12 21 8 19 -17 -5 -44 -20 -23 -20 -23 -20 -2 0
42 -41 35 -84 -15 l-22 -25 -1 23 c-2 19 0 20 7 9 9 -14 11 -13 14 9 0 5 4 13
8 17 4 4 4 12 -2 18 -5 7 -5 17 1 26 8 13 11 13 20 -2 11 -20 53 -25 46 -5 -2
6 -11 11 -19 11 -13 -1 -13 4 -5 30 18 55 26 76 33 76 3 0 5 -10 4 -22z m820
5 c0 -15 2 -16 10 -3 9 13 11 13 19 1 5 -8 23 -14 39 -13 22 0 31 -5 35 -19 7
-25 24 -24 32 1 12 39 30 20 28 -29 -1 -9 2 -10 10 -2 18 18 25 13 19 -14 -2
-15 0 -25 7 -25 6 0 11 5 11 11 0 18 30 -18 31 -38 0 -10 3 -13 6 -5 2 6 13
12 23 12 10 0 20 5 22 12 2 6 19 13 36 14 31 2 32 1 31 -34 l-1 -37 -9 30 c-6
25 -7 22 -6 -19 2 -46 0 -51 -23 -56 -18 -4 -26 -14 -28 -32 -2 -14 -17 -41
-33 -58 -17 -17 -28 -34 -24 -38 3 -3 28 1 54 11 27 9 51 17 55 17 10 0 7 -53
-4 -70 -7 -12 -10 -12 -10 -1 0 7 -6 11 -14 8 -8 -3 -17 -1 -20 6 -3 7 -5 3
-3 -8 1 -14 11 -21 30 -23 30 -4 38 -22 10 -23 -11 0 -13 -3 -5 -6 22 -9 13
-30 -11 -26 -13 3 -38 1 -57 -4 -27 -7 -38 -5 -52 9 -10 10 -16 23 -13 27 3 5
3 16 -1 24 -7 19 -84 16 -117 -6 -22 -14 -25 -14 -41 1 -15 15 -16 14 -16 -10
0 -33 -9 -58 -22 -58 -5 0 -6 5 -3 11 13 19 -6 128 -22 131 -12 2 -11 7 5 26
30 34 14 69 -17 40 -10 -9 -12 -9 -7 -1 3 6 1 15 -5 19 -7 4 -10 -6 -9 -32 2
-22 2 -47 1 -57 -2 -28 -21 -10 -22 21 -1 17 -3 21 -6 10 -2 -10 -14 -18 -25
-18 -17 0 -19 4 -14 25 5 20 3 25 -13 25 -31 0 -51 11 -51 29 0 14 2 14 10 1
6 -9 10 -10 10 -3 0 17 -17 25 -41 18 -13 -4 -19 -14 -18 -28 3 -29 -10 -57
-26 -57 -6 0 -19 8 -29 19 -13 14 -14 24 -6 45 5 15 10 34 10 42 0 14 -2 14
-15 0 -8 -8 -24 -17 -34 -21 -10 -3 -25 -22 -34 -43 l-15 -37 -1 33 c-1 39
-28 44 -37 7 -3 -14 -10 -22 -15 -19 -5 3 -9 0 -9 -6 0 -6 -4 -9 -9 -6 -5 4
-12 0 -14 -6 -3 -7 -6 1 -8 17 -6 82 -3 109 12 129 21 27 11 63 -12 44 -29
-23 -54 -129 -27 -112 6 4 8 3 4 -4 -3 -6 -18 -9 -31 -6 -20 3 -25 0 -25 -16
0 -21 -33 -60 -50 -60 -5 0 -10 9 -10 19 0 22 26 36 34 18 2 -7 5 -4 5 6 1 10
9 30 18 44 10 14 19 38 21 52 4 29 45 78 75 87 14 4 17 12 13 29 -3 13 -2 27
4 30 5 3 10 1 10 -5 0 -6 4 -9 9 -5 13 8 22 -10 23 -46 1 -17 4 -25 8 -19 5 9
9 9 14 1 4 -6 0 -21 -8 -33 -19 -27 -21 -49 -3 -24 13 18 14 18 20 2 4 -10 5
-22 2 -26 -3 -5 10 -6 27 -3 18 4 41 6 51 7 20 0 23 12 5 19 -9 4 -10 6 -1 6
17 1 48 -32 34 -37 -6 -2 -11 -9 -11 -15 1 -7 9 -2 19 10 16 20 22 21 45 10
14 -7 29 -20 32 -30 6 -19 42 -42 52 -32 4 3 0 10 -8 15 -8 6 -11 10 -7 10 5
0 -1 12 -12 26 -17 22 -19 30 -9 48 7 13 13 16 16 8 2 -6 9 -9 14 -6 6 4 17
-1 25 -11 12 -18 13 -18 13 2 0 41 31 37 45 -5 6 -21 11 -23 41 -17 45 8 43
-2 -3 -22 -21 -9 -32 -18 -25 -20 7 -3 24 2 37 11 28 19 45 21 45 5 0 -6 7
-17 16 -26 10 -10 13 -25 9 -44 -6 -26 -4 -29 17 -29 34 0 55 20 63 59 7 31 5
33 -14 28 -11 -3 -25 1 -32 9 -6 8 -17 14 -24 14 -8 0 -11 8 -8 20 4 15 0 20
-16 20 -14 0 -21 6 -21 20 0 24 4 25 24 5 17 -17 56 -25 53 -10 -1 6 -6 9 -10
7 -13 -4 -34 22 -29 36 2 6 -1 12 -7 12 -6 0 -11 6 -11 14 0 7 -8 17 -17 20
-40 15 -73 38 -73 52 0 7 5 14 10 14 6 0 10 -8 10 -17z m-915 -37 c-10 -20
-21 -36 -27 -36 -17 0 -3 55 17 66 28 15 29 11 10 -30z m251 27 c-2 -10 -7
-38 -10 -63 -5 -42 -5 -43 6 -15 12 30 12 30 18 6 3 -13 15 -30 26 -38 20 -13
23 -11 48 42 14 30 28 55 30 55 5 0 -6 -38 -26 -89 -10 -27 -10 -35 0 -38 14
-5 16 -52 2 -73 -8 -12 -10 -10 -10 9 l0 24 -21 -27 c-12 -15 -28 -25 -35 -22
-9 3 -16 -4 -20 -22 -11 -52 -14 -58 -23 -43 -5 7 -5 28 -1 47 6 27 5 34 -7
34 -12 0 -14 -10 -10 -47 l5 -48 -42 -1 c-22 0 -33 1 -24 3 14 4 15 8 6 29 -8
17 -17 23 -30 18 -31 -9 -20 6 12 17 16 6 28 15 25 20 -3 5 1 29 10 54 8 25
15 73 15 106 0 53 3 61 23 69 33 13 39 12 33 -7z m3916 -3 l-22 -19 21 -6 c18
-6 20 -13 16 -41 -5 -27 -2 -34 11 -34 9 0 24 -5 32 -11 11 -8 6 -9 -22 -7
-21 2 -38 3 -38 2 0 -1 -3 -9 -6 -17 -3 -10 3 -17 19 -21 14 -3 28 -13 31 -22
10 -26 0 -28 -24 -4 -19 19 -30 22 -72 18 -54 -6 -53 9 2 21 23 4 36 14 41 31
8 22 7 23 -4 8 -9 -11 -18 -14 -28 -7 -12 7 -11 9 3 9 9 0 20 10 23 21 6 17 9
19 16 8 7 -11 9 -11 9 2 0 19 -26 33 -35 18 -4 -5 -21 -9 -39 -7 -34 2 -59 -8
-51 -22 3 -4 -2 -14 -11 -21 -13 -10 -17 -10 -24 0 -5 9 -10 10 -14 2 -4 -6
-3 -11 3 -11 6 0 8 -7 4 -15 -3 -9 -8 -14 -10 -11 -8 8 -33 -21 -33 -37 0 -28
-12 -47 -30 -47 -28 0 -51 -11 -44 -21 3 -5 -6 -9 -20 -9 -29 0 -95 -74 -74
-84 7 -3 -12 -4 -42 0 -102 10 -218 110 -206 176 3 12 5 32 5 44 1 11 10 30
21 42 17 18 31 22 73 21 45 -1 48 -2 24 -9 -16 -5 -36 -6 -44 -3 -11 4 -14 2
-11 -8 3 -8 13 -15 24 -15 10 -1 27 -2 37 -3 9 -1 17 -7 17 -15 0 -12 18 -22
73 -40 10 -3 16 -10 13 -15 -3 -5 8 -11 26 -13 22 -4 49 4 92 26 l61 31 -47 3
c-27 2 -48 7 -48 12 0 5 24 6 53 3 56 -5 58 -4 197 83 59 37 89 45 52 14z
m-4032 0 c0 -5 -4 -10 -10 -10 -5 0 -10 5 -10 10 0 6 5 10 10 10 6 0 10 -4 10
-10z m-257 -34 c-4 -6 -8 -5 -11 2 -2 7 -8 10 -13 6 -5 -3 -9 -1 -9 5 0 14 24
20 32 7 4 -5 4 -15 1 -20z m676 4 c-6 -16 -15 -27 -20 -24 -5 3 -2 16 7 30 22
32 25 30 13 -6z m201 21 c0 -6 -5 -13 -11 -17 -6 -3 -9 -15 -6 -25 3 -10 1
-22 -4 -25 -5 -3 -9 1 -9 8 -1 7 -7 2 -15 -12 -8 -14 -14 -19 -15 -12 -1 37
-66 6 -83 -40 -4 -11 -13 -15 -28 -11 -22 6 -20 8 21 45 36 32 41 41 30 50
-13 8 -13 9 1 5 9 -3 21 4 28 14 6 11 15 18 19 15 5 -3 14 -1 22 5 19 12 50
12 50 0z m-1435 -10 c3 -5 1 -12 -5 -16 -5 -3 -10 1 -10 9 0 18 6 21 15 7z
m86 -14 c-10 -9 -11 -8 -5 6 3 10 9 15 12 12 3 -3 0 -11 -7 -18z m559 -62 c0
-19 -5 -37 -12 -41 -8 -5 -9 3 -5 29 5 35 5 36 -15 26 -18 -10 -20 -9 -15 6 4
9 7 19 7 21 0 3 6 2 13 -2 7 -5 6 -1 -2 10 -14 17 -15 17 -23 -5 -5 -12 -11
-19 -15 -15 -3 3 0 17 7 31 l13 25 24 -26 c15 -16 23 -37 23 -59z m2125 55 c3
-5 -4 -6 -15 -3 -11 3 -22 9 -25 13 -3 5 4 6 15 3 11 -3 22 -9 25 -13z m2650
9 l40 0 -34 -10 c-24 -7 -42 -7 -57 0 -15 6 -25 7 -29 1 -4 -6 -11 -10 -17
-10 -6 0 -5 6 3 16 8 10 20 13 33 9 12 -4 39 -7 61 -6z m-410 -20 c-4 -6 -13
-8 -21 -5 -16 6 -19 -19 -4 -29 6 -4 8 -10 5 -15 -6 -9 -104 30 -105 42 0 8
37 14 93 17 25 0 36 -3 32 -10z m-4965 -9 c0 -5 -5 -10 -11 -10 -5 0 -7 5 -4
10 3 6 8 10 11 10 2 0 4 -4 4 -10z m1550 -10 c0 -5 -4 -10 -10 -10 -5 0 -10 5
-10 10 0 6 5 10 10 10 6 0 10 -4 10 -10z m2883 -13 c31 -5 57 -14 57 -18 0
-18 -66 -7 -110 17 -25 14 -36 22 -25 18 11 -4 46 -11 78 -17z m-5148 -37 c5
-17 4 -22 -3 -15 -5 6 -13 21 -17 35 -5 17 -4 22 3 15 5 -5 13 -21 17 -35z
m2145 14 c0 -8 -4 -13 -9 -10 -4 3 -21 -5 -37 -19 -26 -23 -58 -25 -35 -2 6 6
11 18 11 27 0 12 10 17 35 18 25 1 35 -3 35 -14z m1310 6 c0 -5 -4 -10 -9 -10
-6 0 -13 5 -16 10 -3 6 1 10 9 10 9 0 16 -4 16 -10z m1985 0 c-3 -5 -14 -10
-23 -9 -14 0 -13 2 3 9 27 11 27 11 20 0z m-1936 -14 c10 -12 8 -13 -8 -9 -12
3 -21 9 -21 14 0 14 16 11 29 -5z m32 -18 c16 10 25 7 60 -25 l40 -37 -28 -14
c-36 -19 -46 -35 -27 -45 9 -5 13 -16 9 -28 -4 -12 -2 -19 5 -17 7 2 15 -3 18
-11 3 -10 0 -11 -9 -5 -12 7 -12 5 -1 -9 8 -9 12 -22 10 -29 -3 -8 -11 -1 -20
16 l-15 29 -19 -32 c-27 -45 -35 -38 -17 15 15 45 11 72 -8 44 -8 -13 -12 -12
-24 4 -24 32 -35 7 -40 -94 -3 -51 -9 -98 -15 -104 -5 -5 -10 -18 -10 -27 0
-9 -6 -19 -14 -22 -10 -4 -9 7 6 45 16 43 17 56 7 80 -8 21 -9 32 -1 40 15 15
3 38 -19 38 -10 0 -27 -8 -37 -18 -17 -17 -17 -20 -3 -30 14 -10 14 -11 -1
-11 -10 -1 -18 -5 -18 -11 0 -5 -8 -6 -17 -3 -15 6 -16 4 -6 -9 7 -8 9 -18 5
-23 -4 -4 4 -4 17 0 30 9 25 -16 -7 -30 -12 -5 -20 -15 -18 -22 3 -8 -4 -11
-24 -8 -16 2 -37 -3 -47 -11 -10 -7 -26 -14 -35 -14 -26 0 -22 -19 7 -30 33
-13 32 -15 -10 -16 -23 0 -35 4 -35 13 0 7 -4 13 -10 13 -5 0 -10 -6 -10 -13
0 -15 41 -37 69 -37 10 0 32 -7 47 -15 29 -16 28 -16 -24 -11 -37 4 -62 1 -82
-9 l-30 -15 6 47 c3 27 15 78 25 114 10 36 19 73 19 80 0 11 16 15 61 17 74 3
108 17 63 25 -16 4 -48 5 -72 4 -32 -1 -41 1 -37 11 3 8 8 30 11 50 l6 37 96
-3 c54 -1 107 -3 120 -3 13 -1 31 6 40 14 9 8 36 20 59 26 29 8 41 16 37 25
-5 14 -50 31 -68 27 -16 -4 -66 21 -61 30 3 4 17 3 31 -3 19 -9 30 -9 45 0z
m739 -8 c0 -5 -8 -10 -17 -10 -15 0 -16 2 -3 10 19 12 20 12 20 0z m1130 -18
c0 -3 -8 -11 -17 -18 -17 -13 -17 -13 0 -14 9 0 17 -4 17 -8 0 -4 -16 -6 -35
-4 -19 2 -33 8 -30 12 3 5 0 10 -7 12 -23 8 1 24 36 24 20 0 36 -2 36 -4z
m-1275 -22 c3 -5 -1 -10 -9 -10 -9 0 -16 5 -16 10 0 6 4 10 9 10 6 0 13 -4 16
-10z m1350 -9 c-3 -6 -14 -10 -23 -10 -15 1 -15 2 1 6 9 2 17 9 17 15 0 6 3 9
6 5 3 -3 3 -10 -1 -16z m45 -43 c0 -12 -7 -30 -16 -40 -16 -17 -15 -19 19 -33
40 -17 63 -12 78 16 8 16 4 21 -23 33 -25 11 -28 15 -12 15 18 1 64 -31 64
-45 0 -17 -25 -46 -46 -54 -20 -8 -32 -5 -61 15 -27 18 -41 22 -54 15 -25 -14
-32 -12 -25 6 5 14 4 15 -8 5 -12 -10 -13 -7 -6 22 9 40 18 57 30 57 10 0 8
-19 -3 -37 -5 -7 -5 -18 -2 -24 4 -6 17 3 31 22 13 18 21 36 18 40 -3 5 0 9 5
9 6 0 11 -10 11 -22z m-1330 -38 c0 -5 -2 -10 -4 -10 -3 0 -8 5 -11 10 -3 6
-1 10 4 10 6 0 11 -4 11 -10z m-2091 -21 c-15 -9 -32 -2 -24 11 3 5 13 6 21 3
12 -4 13 -8 3 -14z m3721 3 c0 -7 -57 -32 -73 -32 -3 0 -4 6 -1 14 3 9 12 12
21 9 9 -4 14 -2 10 3 -3 5 5 11 19 12 13 1 24 -2 24 -6z m-990 -28 c0 -8 9
-14 22 -14 19 0 20 -1 5 -17 -20 -24 -22 -39 -13 -97 7 -46 6 -50 -21 -72 -15
-13 -33 -23 -39 -24 -15 0 -26 28 -18 42 4 6 -1 17 -11 25 -16 11 -17 13 -3
13 9 0 20 -4 23 -10 8 -12 25 -13 44 -1 13 8 13 12 1 26 -21 25 -69 47 -89 40
-11 -3 -24 -19 -31 -36 -10 -22 -17 -28 -31 -24 -21 7 -25 -5 -7 -23 9 -9 6
-12 -15 -12 -15 0 -27 5 -27 10 0 6 -5 10 -11 10 -7 0 -9 -9 -6 -22 6 -22 5
-22 -8 -4 -7 10 -17 16 -22 13 -4 -3 -15 2 -22 11 -13 14 -12 15 7 10 15 -4
22 -2 22 8 0 9 -12 14 -37 15 -21 0 -51 3 -68 5 -16 2 -37 5 -45 6 -8 1 -32
-1 -52 -5 -31 -7 -37 -5 -43 13 -3 11 -11 20 -16 20 -6 0 -7 -10 -3 -22 6 -21
4 -20 -18 5 -22 25 -28 27 -52 17 -20 -7 -26 -15 -22 -26 5 -14 0 -15 -40 -9
-54 8 -103 39 -99 64 2 14 21 16 156 17 109 0 161 4 179 14 14 7 67 17 119 21
52 5 99 13 104 18 7 7 19 5 37 -4 15 -8 50 -13 81 -11 46 2 54 5 51 20 -2 11
1 15 7 11 6 -3 11 -13 11 -21z m1030 5 c0 -6 -4 -7 -10 -4 -5 3 -10 11 -10 16
0 6 5 7 10 4 6 -3 10 -11 10 -16z m-485 1 c-3 -5 -13 -10 -21 -10 -8 0 -14 5
-14 10 0 6 9 10 21 10 11 0 17 -4 14 -10z m-3445 -10 c0 -5 -2 -10 -4 -10 -3
0 -8 5 -11 10 -3 6 -1 10 4 10 6 0 11 -4 11 -10z m3540 -20 c18 -12 2 -12 -25
0 -13 6 -15 9 -5 9 8 0 22 -4 30 -9z m-548 -17 c18 -16 18 -16 12 3 -7 17 -6
18 12 4 50 -37 53 -74 5 -65 -14 3 -20 2 -13 -1 6 -3 12 -12 12 -19 0 -8 7
-11 20 -8 11 3 20 0 20 -6 0 -14 -20 -23 -55 -25 -15 0 -28 -9 -31 -20 -5 -15
-10 -12 -30 20 -27 46 -30 81 -8 112 18 26 31 28 56 5z m334 1 c-4 -12 0 -15
22 -13 44 3 82 0 82 -8 0 -5 -21 -9 -48 -10 -26 -1 -67 -9 -92 -18 -25 -9 -56
-19 -70 -21 -24 -5 -24 -5 -5 11 11 8 37 21 57 27 26 8 38 17 38 30 0 10 5 18
11 18 6 0 8 -7 5 -16z m-91 -24 c-3 -5 -11 -10 -16 -10 -6 0 -7 5 -4 10 3 6
11 10 16 10 6 0 7 -4 4 -10z m247 -44 c-9 -18 -11 -16 -11 19 0 33 1 37 10 21
8 -12 8 -25 1 -40z m-1909 9 c-3 -9 -8 -14 -10 -11 -3 3 -2 9 2 15 9 16 15 13
8 -4z m1617 11 c0 -2 -7 -7 -16 -10 -8 -3 -12 -2 -9 4 6 10 25 14 25 6z m155
-12 c-16 -8 -37 -22 -45 -29 -9 -8 -21 -11 -29 -6 -9 6 -7 10 9 14 14 4 19 10
14 18 -4 7 -3 10 2 6 6 -3 16 -2 24 4 8 5 24 9 35 9 16 0 14 -3 -10 -16z m73
-33 c-30 -28 -77 -44 -63 -22 3 5 0 11 -7 14 -7 2 -4 3 7 1 11 -2 36 10 55 26
45 37 52 21 8 -19z m-1771 7 c-3 -8 -6 -5 -6 6 -1 11 2 17 5 13 3 -3 4 -12 1
-19z m-1217 2 c0 -5 -5 -10 -11 -10 -5 0 -7 5 -4 10 3 6 8 10 11 10 2 0 4 -4
4 -10z m3090 6 c0 -11 -19 -15 -25 -6 -3 5 1 10 9 10 9 0 16 -2 16 -4z m-4831
-9 c-2 -1 -13 -9 -24 -17 -19 -14 -19 -14 -6 3 7 9 18 17 24 17 6 0 8 -1 6 -3z
m1071 -33 c0 -2 -9 0 -20 6 -11 6 -20 13 -20 16 0 2 9 0 20 -6 11 -6 20 -13
20 -16z m2465 -3 c3 -5 1 -13 -5 -16 -15 -9 -43 3 -35 15 8 13 32 13 40 1z
m1049 -41 c42 -17 88 -30 102 -30 31 0 80 24 94 47 10 17 10 16 8 -2 -2 -11
-21 -30 -45 -43 -48 -26 -104 -37 -97 -19 4 11 -101 52 -133 52 -19 0 -36 22
-28 35 6 9 9 9 14 1 4 -6 42 -25 85 -41z m163 44 c-3 -3 -12 -4 -19 -1 -8 3
-5 6 6 6 11 1 17 -2 13 -5z m-3276 -46 c8 -15 8 -18 0 -14 -6 4 -16 16 -22 28
-8 15 -8 18 0 14 6 -4 16 -16 22 -28z m-531 18 c0 -11 -19 -15 -25 -6 -3 5 1
10 9 10 9 0 16 -2 16 -4z m3120 -27 c0 -5 12 -6 28 -3 l27 7 -35 -36 c-19 -20
-39 -37 -44 -37 -6 0 -5 5 1 11 7 7 3 18 -15 36 -25 25 -25 27 -7 33 23 8 45
2 45 -11z m-450 1 c13 -9 13 -10 0 -10 -8 0 -22 5 -30 10 -13 9 -13 10 0 10 8
0 22 -5 30 -10z m-2085 -20 c3 -5 1 -10 -4 -10 -6 0 -11 5 -11 10 0 6 2 10 4
10 3 0 8 -4 11 -10z m2255 -26 c0 -20 -7 -17 -20 6 -9 16 -8 18 5 14 8 -4 15
-12 15 -20z m-2302 -5 c-19 -13 -28 -11 -28 5 0 9 7 12 21 9 16 -4 17 -8 7
-14z m2145 -6 c-7 -2 -19 -2 -25 0 -7 3 -2 5 12 5 14 0 19 -2 13 -5z m-2508
-33 c8 -16 15 -43 15 -60 0 -18 6 -33 15 -36 8 -4 15 -10 15 -15 0 -5 -7 -9
-15 -9 -8 0 -15 -7 -15 -16 0 -8 4 -13 10 -9 14 8 140 -6 134 -16 -2 -4 5 -13
16 -19 20 -11 21 -10 10 9 -13 25 2 35 42 29 l23 -3 -21 -21 c-11 -11 -19 -25
-17 -31 5 -13 -56 -43 -74 -36 -8 3 -12 12 -9 19 3 8 1 14 -4 14 -6 0 -10 -4
-10 -9 0 -5 -10 -7 -22 -3 -21 5 -22 4 -9 -12 8 -9 11 -19 7 -23 -3 -3 -6 -1
-6 5 0 7 -9 12 -19 12 -11 0 -27 7 -35 16 -29 29 -19 -17 11 -48 23 -24 24
-28 10 -34 -10 -3 -24 -3 -33 0 -8 3 -12 2 -9 -4 4 -6 -5 -9 -20 -8 -23 2 -25
5 -19 33 11 44 12 127 2 112 -5 -6 -6 10 -3 38 7 57 -4 81 -31 71 -18 -7 -18
-8 0 -21 17 -13 18 -15 2 -21 -23 -9 -86 36 -86 61 1 18 2 19 14 3 21 -28 68
-17 78 17 6 23 22 44 35 45 1 0 9 -13 18 -30z m2740 10 c-4 -6 11 -10 38 -10
54 0 61 -6 36 -31 -26 -26 -75 -17 -120 22 l-34 28 43 1 c26 0 41 -4 37 -10z
m-3970 -10 c3 -5 1 -10 -4 -10 -6 0 -11 5 -11 10 0 6 2 10 4 10 3 0 8 -4 11
-10z m1585 6 c0 -3 -4 -8 -10 -11 -5 -3 -10 -1 -10 4 0 6 5 11 10 11 6 0 10
-2 10 -4z m1176 -5 c-4 -5 0 -11 6 -14 7 -2 10 -7 6 -11 -3 -4 -17 -2 -29 5
-23 12 -23 12 -4 20 27 10 27 10 21 0z m-56 -11 c0 -5 -4 -10 -10 -10 -5 0
-10 5 -10 10 0 6 5 10 10 10 6 0 10 -4 10 -10z m1920 -11 c0 -5 -14 -27 -30
-48 -24 -30 -36 -37 -55 -33 -22 4 -23 6 -9 27 11 16 21 21 41 17 18 -3 24 -1
19 7 -4 6 -14 11 -23 11 -13 0 -13 3 -3 15 14 17 60 20 60 4z m-3873 -5 c-3
-3 -12 -4 -19 -1 -8 3 -5 6 6 6 11 1 17 -2 13 -5z m56 -1 c-7 -2 -19 -2 -25 0
-7 3 -2 5 12 5 14 0 19 -2 13 -5z m1960 -16 c4 3 7 2 7 -4 0 -6 -9 -13 -21
-16 -13 -4 -18 -10 -13 -18 4 -8 3 -10 -4 -5 -7 4 -12 14 -12 22 0 8 -3 13 -7
13 -5 -1 -17 -1 -28 0 -18 1 -17 3 5 14 21 11 29 11 46 0 11 -7 24 -10 27 -6z
m-1900 6 c-7 -2 -21 -2 -30 0 -10 3 -4 5 12 5 17 0 24 -2 18 -5z m1072 -3 c3
-5 -1 -10 -10 -10 -9 0 -13 5 -10 10 3 6 8 10 10 10 2 0 7 -4 10 -10z m4080
-6 c-18 -13 -141 -54 -161 -54 -11 1 156 67 171 68 6 1 1 -5 -10 -14z m-3351
-9 c3 -8 1 -15 -3 -15 -5 0 -11 7 -15 15 -3 8 -1 15 3 15 5 0 11 -7 15 -15z
m1333 -11 c-3 -3 -12 -4 -19 -1 -8 3 -5 6 6 6 11 1 17 -2 13 -5z m1440 0 c-3
-3 -12 -4 -19 -1 -8 3 -5 6 6 6 11 1 17 -2 13 -5z m-3492 -14 c3 -6 -1 -7 -9
-4 -18 7 -21 14 -7 14 6 0 13 -4 16 -10z m750 -10 c3 -5 1 -10 -4 -10 -6 0
-11 5 -11 10 0 6 2 10 4 10 3 0 8 -4 11 -10z m1334 -37 c-9 -10 -9 -14 -2 -10
14 9 77 -15 88 -33 10 -16 -16 -32 -31 -19 -7 5 -21 11 -32 14 -15 3 -19 -1
-15 -16 6 -21 -12 -25 -37 -9 -9 5 -19 5 -28 -2 -9 -8 -16 -8 -24 0 -11 11 0
17 25 13 4 0 7 4 7 10 0 5 4 8 9 5 5 -3 11 1 14 9 5 11 1 12 -15 6 -25 -9 -68
-3 -68 10 0 5 12 8 28 8 15 -1 36 -1 47 0 20 2 20 2 1 16 -19 14 -18 15 13 15
30 0 32 -2 20 -17z m505 8 c11 -18 -6 -41 -30 -41 -28 0 -29 3 -12 30 14 21
33 26 42 11z m-3402 -43 c-12 -12 -35 -1 -27 12 3 5 13 6 21 3 10 -4 12 -9 6
-15z m2743 -18 c-3 -5 -10 -10 -16 -10 -5 0 -9 5 -9 10 0 6 7 10 16 10 8 0 12
-4 9 -10z m632 -12 c-1 -14 -4 -15 -16 -5 -11 9 -15 9 -18 0 -3 -7 -14 -13
-26 -13 l-22 1 23 19 c28 23 61 22 59 -2z m-1827 2 c0 -5 -2 -10 -4 -10 -3 0
-8 5 -11 10 -3 6 -1 10 4 10 6 0 11 -4 11 -10z m3760 -31 c0 -5 6 -6 14 -3 8
3 17 1 20 -4 3 -5 -4 -13 -17 -16 -21 -6 -21 -7 -3 -21 18 -13 18 -15 2 -21
-28 -11 -59 -11 -80 -1 -19 9 -19 10 3 28 13 11 29 19 37 19 8 0 14 5 14 10 0
6 -7 10 -15 10 -8 0 -15 4 -15 9 0 5 9 7 20 4 11 -3 20 -9 20 -14z m-3760 1
c0 -5 -4 -10 -10 -10 -5 0 -10 5 -10 10 0 6 5 10 10 10 6 0 10 -4 10 -10z
m930 0 c0 -5 -2 -10 -4 -10 -3 0 -8 5 -11 10 -3 6 -1 10 4 10 6 0 11 -4 11
-10z m2169 -10 c-9 -6 -10 -12 -1 -22 9 -11 7 -14 -9 -15 -14 -1 -19 3 -15 12
3 8 1 17 -4 20 -6 4 -10 1 -10 -5 0 -7 -8 -9 -22 -4 -19 6 -21 5 -11 -7 10
-12 8 -15 -7 -16 -13 -1 -19 4 -17 15 5 32 15 37 62 34 30 -3 43 -7 34 -12z
m-2045 -6 c9 -24 2 -26 -12 -4 -7 11 -8 20 -3 20 5 0 12 -7 15 -16z m733 -25
c-10 -30 -37 -69 -37 -56 0 3 9 27 20 53 23 53 36 56 17 3z m1446 34 c-13 -2
-35 -2 -50 0 -16 2 -5 4 22 4 28 0 40 -2 28 -4z m-4848 -31 c-3 -3 -11 0 -18
7 -9 10 -8 11 6 5 10 -3 15 -9 12 -12z m2530 8 c3 -5 -1 -10 -9 -10 -8 0 -18
5 -21 10 -3 6 1 10 9 10 8 0 18 -4 21 -10z m55 0 c0 -5 -8 -10 -17 -10 -15 0
-16 2 -3 10 19 12 20 12 20 0z m460 -4 c0 -3 -4 -8 -10 -11 -5 -3 -10 -1 -10
4 0 6 5 11 10 11 6 0 10 -2 10 -4z m-540 -48 c0 -19 -16 -5 -17 14 -2 18 0 20
7 8 5 -8 10 -18 10 -22z m442 9 c-24 -11 -38 -5 -28 11 3 6 16 8 28 4 l22 -5
-22 -10z m1925 -19 c-4 -13 1 -18 16 -19 21 0 21 -1 2 -9 -35 -15 -54 -11 -52
10 1 11 7 20 14 20 16 0 17 12 1 30 -11 12 -10 12 5 0 11 -8 16 -21 14 -32z
m83 30 c0 -5 -9 -8 -19 -8 -11 0 -22 3 -24 8 -3 4 6 7 19 7 13 0 24 -3 24 -7z
m-3982 -14 c12 -8 22 -22 22 -30 0 -12 -8 -13 -37 -8 -52 9 -54 14 -7 14 27 0
35 3 25 9 -8 5 -19 7 -26 5 -6 -3 -25 2 -41 11 l-29 15 35 0 c20 0 46 -7 58
-16z m1444 -6 c-7 -7 -12 -8 -12 -2 0 14 12 26 19 19 2 -3 -1 -11 -7 -17z
m174 -5 c-7 -7 -26 7 -26 19 0 6 6 6 15 -2 9 -7 13 -15 11 -17z m824 4 c0 -2
-12 -14 -27 -28 l-28 -24 24 28 c23 25 31 32 31 24z m1983 -10 c6 4 25 8 42 9
16 1 22 0 13 -3 -10 -2 -18 -12 -18 -21 0 -10 -3 -13 -8 -7 -4 6 -15 11 -24
12 -35 1 -39 3 -32 15 6 9 9 9 12 0 2 -7 9 -9 15 -5z m-159 -8 c4 6 14 11 22
11 9 0 12 -5 8 -11 -4 -7 1 -7 16 1 16 9 25 9 33 1 8 -8 8 -11 0 -11 -6 0 -14
-13 -18 -28 -4 -19 -12 -28 -28 -29 l-22 -2 24 18 c14 11 18 18 10 19 -40 5
-79 15 -79 21 0 15 14 21 21 10 5 -8 8 -8 13 0z m243 -15 c-3 -3 -12 -4 -19
-1 -8 3 -5 6 6 6 11 1 17 -2 13 -5z m-5367 -24 c0 -5 -4 -10 -10 -10 -5 0 -10
5 -10 10 0 6 5 10 10 10 6 0 10 -4 10 -10z m5113 -4 c9 -5 17 -12 17 -17 0 -9
-59 9 -74 22 -11 10 32 6 57 -5z m-4233 -24 c0 -12 -7 -18 -17 -17 -10 0 -18
5 -18 10 0 6 6 9 13 9 6 -1 12 2 12 7 0 5 2 9 5 9 3 0 5 -8 5 -18z m2847 -44
c-32 -61 -87 -132 -87 -112 0 6 9 23 21 38 11 15 18 33 15 41 -3 8 0 12 7 10
7 -3 24 16 39 40 39 65 42 55 5 -17z m938 42 c3 -5 2 -10 -4 -10 -5 0 -13 5
-16 10 -3 6 -2 10 4 10 5 0 13 -4 16 -10z m-1095 -27 c-12 -16 -25 -28 -28
-28 -13 -1 -100 -90 -112 -114 -9 -18 -14 -21 -21 -10 -5 8 -3 16 4 21 7 4 2
10 -14 16 -18 7 -24 17 -24 36 2 37 15 45 15 9 0 -45 33 -51 68 -12 23 25 120
106 130 108 2 1 -6 -11 -18 -26z m277 5 c-3 -8 -6 -5 -6 6 -1 11 2 17 5 13 3
-3 4 -12 1 -19z m1328 1 c10 -15 2 -19 -24 -12 -17 4 -19 8 -9 14 18 12 26 11
33 -2z m-6306 -29 c11 -24 11 -24 -3 -6 -9 11 -16 24 -16 30 0 12 5 7 19 -24z
m1898 24 c-3 -3 -12 -4 -19 -1 -8 3 -5 6 6 6 11 1 17 -2 13 -5z m2610 -26 c-3
-7 -5 -2 -5 12 0 14 2 19 5 13 2 -7 2 -19 0 -25z m1268 23 c3 -5 1 -12 -5 -16
-5 -3 -10 1 -10 9 0 18 6 21 15 7z m-5694 -18 c13 -16 12 -17 -3 -4 -10 7 -18
15 -18 17 0 8 8 3 21 -13z m4907 -38 c-5 -37 -3 -45 11 -45 15 -1 15 -1 0 -10
-24 -14 -34 -77 -15 -96 8 -8 12 -22 9 -31 -5 -12 -2 -12 15 3 12 10 22 23 22
28 0 14 31 46 45 46 7 0 17 -18 23 -40 5 -22 6 -37 1 -34 -5 3 -9 11 -9 19 0
20 -13 25 -30 13 -12 -8 -12 -9 3 -4 27 9 20 -3 -9 -14 -21 -8 -25 -15 -21
-38 2 -15 2 -21 0 -14 -6 16 -11 15 -29 -3 -14 -13 -13 -52 1 -75 3 -5 1 -10
-4 -10 -6 0 -11 7 -11 15 0 8 -7 15 -15 15 -8 0 -15 5 -15 11 0 6 7 8 16 5 8
-3 12 -2 9 4 -10 16 -24 12 -50 -15 l-25 -24 0 30 c0 22 6 32 26 41 20 9 27 9
33 -1 6 -9 11 -8 22 5 12 16 12 17 -3 11 -10 -3 -18 -3 -18 2 0 14 -172 -6
-201 -24 -5 -4 -9 -2 -9 4 0 6 12 13 28 17 15 3 40 10 56 15 16 5 39 9 51 9
13 0 26 9 33 24 9 21 8 27 -14 40 -13 9 -24 21 -24 26 0 16 32 12 52 -7 11 -9
18 -11 18 -5 0 7 -5 12 -10 12 -7 0 -7 6 0 20 9 16 8 20 -5 20 -8 0 -15 8 -15
18 0 9 4 13 8 7 4 -5 16 -17 26 -25 18 -14 18 -13 12 7 -7 22 2 93 11 93 3 0
3 -20 1 -45z m181 -11 c-6 -27 -15 -53 -20 -58 -4 -4 0 19 8 53 9 34 17 60 20
58 2 -3 -1 -26 -8 -53z m771 -8 c0 -33 -2 -37 -15 -26 -17 14 -21 35 -5 25 6
-4 8 8 5 32 -3 27 -2 34 5 23 5 -8 10 -32 10 -54z m-3970 33 c0 -5 -4 -9 -10
-9 -5 0 -10 7 -10 16 0 8 5 12 10 9 6 -3 10 -10 10 -16z m2726 -23 c-8 -20
-21 -36 -28 -36 -9 0 -9 -3 2 -10 11 -7 21 -3 38 18 21 25 23 26 34 8 8 -15
12 -16 20 -5 8 11 9 11 5 -1 -4 -16 -28 -21 -38 -7 -3 5 -9 2 -12 -7 -4 -11 1
-18 18 -22 14 -3 22 -11 18 -17 -3 -6 -1 -7 5 -3 7 4 18 3 26 -1 12 -7 10 -14
-10 -38 -14 -16 -22 -22 -18 -12 7 20 1 21 -27 6 -11 -5 -17 -14 -14 -19 3 -6
0 -7 -8 -4 -8 3 -18 0 -22 -6 -4 -6 -15 -8 -25 -5 -17 5 -18 3 -10 -25 5 -18
14 -38 20 -45 13 -16 -10 -27 -31 -14 -10 6 -10 9 -1 9 16 0 15 15 -5 58 -22
49 -20 48 -44 26 l-22 -19 17 27 c16 25 16 28 1 52 -10 15 -13 26 -7 26 6 0
16 -8 21 -17 10 -17 12 -16 31 7 11 14 20 33 20 42 0 9 6 21 14 25 7 4 19 19
25 31 19 36 24 19 7 -22z m-2886 24 c-8 -5 -22 -9 -30 -9 -10 0 -8 3 5 9 27
12 43 12 25 0z m-1457 -20 c-18 -11 -33 -26 -33 -34 0 -8 -4 -17 -9 -20 -5 -4
-7 3 -4 14 6 22 48 60 67 60 6 0 -4 -9 -21 -20z m5850 -5 c-7 -21 -13 -19 -13
6 0 11 4 18 10 14 5 -3 7 -12 3 -20z m-936 -22 c-3 -10 -5 -4 -5 12 0 17 2 24
5 18 2 -7 2 -21 0 -30z m-395 -3 c9 -17 16 -30 14 -30 -9 0 -46 39 -46 49 0
20 15 11 32 -19z m897 18 c-2 -2 -17 -14 -34 -28 l-30 -25 29 32 c16 18 32 31
34 28 3 -3 3 -6 1 -7z m729 -26 c2 -7 -3 -10 -12 -6 -9 3 -16 1 -16 -5 0 -6
-4 -11 -10 -11 -5 0 -10 8 -10 18 0 21 41 24 48 4z m-6215 -16 c-10 -13 -20
-22 -22 -20 -4 4 29 44 36 44 2 0 -4 -11 -14 -24z m1567 2 c9 -3 10 -7 3 -11
-6 -4 -19 3 -29 16 -11 12 -12 17 -4 11 8 -6 22 -13 30 -16z m4332 -14 c-8
-14 -10 -14 -15 5 -3 12 -1 19 4 15 5 -3 9 1 10 8 0 9 2 10 5 1 3 -7 1 -20 -4
-29z m-4378 10 c4 -10 1 -14 -6 -12 -15 5 -23 28 -10 28 5 0 13 -7 16 -16z
m100 10 c9 -3 16 -10 16 -14 0 -10 -38 -1 -46 11 -6 10 7 12 30 3z m2359 -170
c17 -9 24 -20 21 -29 -4 -8 -1 -15 6 -15 6 0 8 5 4 12 -4 7 -3 8 4 4 7 -4 12
-3 12 3 0 5 -4 12 -10 16 -5 3 -7 12 -3 20 10 28 21 15 19 -22 -2 -42 11 -73
32 -73 10 0 12 9 8 33 l-6 32 14 -35 c11 -31 11 -35 -3 -39 -9 -2 -19 -8 -23
-14 -7 -11 -8 -9 -23 38 -2 8 -8 15 -12 14 -21 -4 -44 2 -39 10 3 4 -1 17 -9
27 -9 12 -14 14 -15 6 0 -23 -20 -2 -20 22 0 38 -24 51 -69 37 -56 -16 -78
-48 -30 -43 4 1 17 -10 30 -24 21 -23 21 -24 3 -21 -10 1 -30 10 -44 20 -13 9
-34 17 -45 16 -14 0 -10 -4 13 -13 18 -6 30 -14 27 -18 -4 -3 5 -14 20 -24 26
-17 28 -17 41 1 12 16 12 21 -5 39 -35 40 -35 51 1 19 20 -17 46 -34 58 -38
20 -6 20 -8 -10 -41 -35 -41 -34 -37 -14 -72 12 -21 13 -23 1 -9 -10 12 -16
14 -19 6 -2 -7 -12 -13 -22 -15 -10 -1 -15 3 -13 9 3 7 10 11 16 10 14 -4 15
34 1 42 -6 4 -8 11 -5 16 4 5 -1 9 -9 9 -9 0 -25 9 -37 21 -13 13 -27 18 -42
14 -17 -5 -18 -4 -8 4 13 8 11 13 -10 30 -13 11 -18 20 -11 21 8 0 3 13 -14
35 -14 19 -21 35 -15 35 6 0 11 -4 11 -9 0 -5 14 -20 32 -32 17 -13 28 -17 23
-9 -5 8 -4 11 2 7 6 -4 27 3 49 13 21 11 45 20 54 20 22 1 -27 40 -51 40 -10
0 -21 5 -24 10 -3 6 -4 10 0 10 16 0 73 -29 90 -46 18 -19 18 -19 12 6 -4 14
-10 39 -12 55 -3 17 5 -5 18 -49 18 -62 29 -81 50 -92z m35 141 c-3 -3 -9 2
-12 12 -6 14 -5 15 5 6 7 -7 10 -15 7 -18z m969 -12 c-3 -10 -5 -4 -5 12 0 17
2 24 5 18 2 -7 2 -21 0 -30z m-953 3 l16 29 -7 -30 c-3 -16 -11 -33 -17 -37
-10 -7 -2 -12 16 -9 4 0 11 -11 14 -25 4 -15 12 -23 19 -20 8 3 16 -2 19 -10
3 -8 1 -14 -3 -14 -5 0 -18 -3 -28 -6 -14 -5 -15 -4 -4 4 12 8 7 12 -20 19
-27 8 -34 14 -34 34 0 13 -8 35 -17 49 -26 36 -22 46 6 14 l23 -28 17 30z
m1196 18 c0 -8 -19 -13 -24 -6 -3 5 1 9 9 9 8 0 15 -2 15 -3z m-634 -11 c-10
-11 -37 -12 -30 -2 3 5 12 9 21 9 9 0 13 -3 9 -7z m687 -6 c4 3 7 1 7 -5 0
-17 -16 -15 -31 6 -12 15 -12 16 2 5 9 -7 19 -10 22 -6z m-5325 -19 c-8 -12
-20 -24 -26 -26 -7 -2 -2 8 11 22 27 32 34 33 15 4z m1197 6 c19 -15 19 -15
-10 -8 -16 4 -39 11 -50 15 -17 6 -15 8 10 8 17 0 39 -7 50 -15z m4982 4 c9
-7 10 -16 2 -29 -10 -20 -49 -27 -49 -8 0 6 9 8 20 4 16 -5 20 -2 20 14 0 25
-13 27 -30 6 -15 -18 -36 -20 -46 -4 -14 23 57 38 83 17z m-6273 -13 c-4 -8
-8 -15 -10 -15 -2 0 -4 7 -4 15 0 8 4 15 10 15 5 0 7 -7 4 -15z m4723 -20 c40
-30 43 -42 9 -36 -5 1 -12 -3 -16 -9 -5 -7 -10 -2 -14 13 -3 14 -15 28 -26 32
-11 4 -17 12 -13 21 7 19 8 19 60 -21z m285 6 c-3 -24 -7 -27 -17 -18 -9 9 -9
16 -1 29 16 26 23 22 18 -11z m41 8 c4 -16 3 -18 -9 -8 -16 13 -19 29 -5 29 5
0 11 -9 14 -21z m-3687 -14 c16 -8 22 -15 14 -15 -18 1 -70 29 -54 30 7 0 25
-7 40 -15z m3734 3 c0 -4 -4 -8 -9 -8 -6 0 -12 4 -15 8 -3 5 1 9 9 9 8 0 15
-4 15 -9z m35 2 c3 -5 1 -10 -4 -10 -6 0 -11 5 -11 10 0 6 2 10 4 10 3 0 8 -4
11 -10z m395 -12 c0 -6 -6 -5 -15 2 -8 7 -15 14 -15 16 0 2 7 1 15 -2 8 -4 15
-11 15 -16z m-1160 -8 c-6 -11 -13 -20 -16 -20 -2 0 0 9 6 20 6 11 13 20 16
20 2 0 0 -9 -6 -20z m315 -3 c13 -10 15 -16 6 -21 -12 -8 -41 10 -41 25 0 13
13 11 35 -4z m505 7 c0 -8 -19 -13 -24 -6 -3 5 1 9 9 9 8 0 15 -2 15 -3z m230
-9 c-7 -8 -20 -15 -29 -15 -11 1 -8 5 9 15 32 18 35 18 20 0z m431 3 c0 -7 2
-24 3 -38 2 -14 -1 -36 -7 -50 -5 -14 -9 -38 -8 -55 1 -23 -1 -26 -9 -15 -8
12 -10 11 -10 -7 0 -13 5 -23 10 -23 6 0 10 -4 10 -10 0 -5 -8 -10 -19 -10
-17 0 -17 5 -9 53 5 28 14 56 19 62 5 5 9 15 9 22 0 11 -5 11 -20 3 -13 -7
-21 -22 -21 -43 -2 -31 -2 -31 -6 -4 -3 20 -9 27 -21 25 -9 -2 -16 -8 -15 -13
1 -6 -3 -15 -9 -22 -5 -7 -6 -18 -2 -24 4 -8 3 -9 -5 -5 -6 4 -14 0 -17 -8 -5
-13 -10 -12 -26 9 -11 14 -26 25 -34 25 -8 0 -13 4 -10 9 3 5 0 8 -7 7 -6 0
-13 4 -14 9 -2 6 0 10 5 10 4 1 16 6 28 12 19 11 23 9 33 -14 11 -24 11 -25
-4 -13 -15 12 -15 11 -4 -13 7 -15 16 -27 20 -27 12 0 18 26 9 40 -5 8 -4 22
2 33 8 16 7 19 -5 14 -18 -7 -53 38 -37 48 5 3 28 0 50 -6 40 -12 40 -12 20
-31 -11 -10 -20 -28 -20 -39 0 -20 1 -20 29 3 17 13 30 30 31 38 0 13 2 13 9
1 5 -8 16 -11 26 -7 13 4 15 13 10 36 -4 19 -3 30 4 30 6 0 11 -6 12 -12z
m176 -9 c-9 -6 -17 -17 -17 -24 0 -8 -5 -15 -11 -15 -5 0 -7 5 -4 10 3 6 -3
10 -14 10 -11 0 -22 4 -25 8 -3 5 7 7 23 4 17 -2 32 2 40 12 8 9 17 14 20 10
3 -3 -2 -10 -12 -15z m-5744 4 c-7 -2 -21 -2 -30 0 -10 3 -4 5 12 5 17 0 24
-2 18 -5z m4007 -9 c0 -8 -4 -12 -10 -9 -5 3 -10 10 -10 16 0 5 5 9 10 9 6 0
10 -7 10 -16z m837 -31 c-3 -10 -5 -2 -5 17 0 19 2 27 5 18 2 -10 2 -26 0 -35z
m431 15 c0 -18 2 -59 6 -90 4 -32 5 -58 3 -58 -3 0 -13 35 -23 78 -19 84 -15
86 -43 -23 -10 -37 -10 -36 -6 20 4 50 10 64 33 82 15 13 28 23 29 23 2 0 2
-15 1 -32z m357 22 c4 -6 10 -8 14 -5 5 2 5 -10 2 -28 -5 -23 -12 -31 -24 -29
-19 3 -21 -6 -8 -27 5 -7 13 -11 19 -7 6 3 14 2 17 -4 4 -6 1 -9 -6 -8 -8 2
-14 -7 -15 -20 -1 -20 3 -23 22 -19 28 5 33 -17 7 -27 -10 -3 -24 -9 -32 -12
-9 -4 -11 -2 -7 5 4 7 0 11 -12 11 -12 0 -22 -9 -26 -22 -7 -22 -7 -22 -16 -3
-5 13 -3 24 6 31 7 6 11 14 7 17 -3 4 -1 7 5 7 7 0 12 -4 12 -10 0 -5 4 -10
10 -10 13 0 6 47 -14 94 -11 27 -13 43 -6 50 7 7 10 5 10 -7 0 -10 8 -17 20
-17 13 0 18 5 14 15 -4 8 -10 15 -15 15 -5 0 -9 5 -9 10 0 13 17 13 25 0z
m185 -50 c-20 -12 -31 9 -17 32 12 18 12 18 21 -3 7 -15 6 -23 -4 -29z m240
25 c20 -21 21 -25 6 -25 -11 0 -14 4 -10 12 5 7 2 9 -7 6 -10 -4 -15 1 -15 13
0 11 1 19 1 19 1 0 12 -11 25 -25z m-6867 -54 c-2 -3 -20 12 -41 34 l-37 39
41 -35 c22 -19 39 -36 37 -38z m4391 39 c5 -5 6 -10 1 -10 -5 0 2 -12 16 -27
l24 -27 -42 30 c-27 19 -37 32 -30 36 7 5 3 8 -10 8 -12 0 -24 4 -28 9 -7 12
55 -5 69 -19z m699 -50 c-3 -14 -5 -29 -4 -33 1 -5 -3 -6 -8 -3 -5 4 -11 0
-14 -6 -3 -10 -8 -10 -18 1 -8 8 -9 11 -2 7 21 -12 45 38 39 81 -6 36 -5 36 4
8 6 -16 7 -41 3 -55z m787 70 c-20 -13 -33 -13 -25 0 3 6 14 10 23 10 15 0 15
-2 2 -10z m250 -20 c-20 -13 -30 -12 -30 1 0 5 4 8 9 4 5 -3 13 0 16 6 4 5 10
8 13 4 4 -3 0 -10 -8 -15z m-5766 -6 c3 -8 2 -12 -4 -9 -6 3 -10 10 -10 16 0
14 7 11 14 -7z m3301 6 c6 -9 -8 -14 -27 -11 -5 0 -7 -5 -5 -11 3 -17 -25 -17
-31 0 -2 6 7 16 20 21 31 13 36 13 43 1z m1142 -20 c0 -19 -4 -27 -10 -21 -5
5 -6 18 -2 30 9 29 12 26 12 -9z m-3908 -135 c0 -11 -11 16 -25 59 -13 44 -24
85 -23 90 2 18 48 -127 48 -149z m2167 143 c-4 -26 -19 -40 -38 -35 -14 4 -18
2 -14 -9 5 -14 -4 -18 -38 -14 -11 1 -15 -3 -12 -9 4 -6 2 -11 -3 -11 -29 0
-5 33 36 49 18 7 38 19 44 27 14 17 28 18 25 2z m3086 -26 c-21 -16 -30 2 -11
24 10 12 14 12 20 2 6 -8 2 -18 -9 -26z m438 13 c-11 -13 -15 -13 -21 -3 -5 8
-2 15 9 19 23 9 27 3 12 -16z m-1586 0 c3 -9 0 -15 -9 -15 -9 0 -12 6 -9 15 4
8 7 15 9 15 2 0 5 -7 9 -15z m1690 1 c-3 -8 -12 -12 -19 -9 -10 3 -13 -2 -9
-23 4 -22 3 -25 -9 -16 -8 7 -17 9 -20 5 -4 -3 -7 -2 -7 3 0 6 -15 8 -34 6
-20 -2 -37 1 -41 8 -5 8 -3 11 6 8 7 -2 24 1 37 8 14 7 30 10 38 7 7 -2 21 0
31 6 25 14 33 13 27 -3z m-1744 -30 c0 -5 -3 -7 -6 -3 -3 3 -18 -15 -32 -41
-14 -26 -31 -58 -38 -72 -29 -54 -12 -3 24 70 32 67 51 84 52 46z m577 -10
c46 16 103 18 103 4 0 -6 -6 -10 -12 -8 -51 9 -151 -31 -113 -46 8 -3 15 -13
15 -22 0 -10 -5 -14 -16 -10 -8 3 -12 2 -9 -4 3 -5 1 -18 -4 -27 -10 -17 -10
-17 -11 -1 0 10 -9 23 -20 30 -29 19 -25 24 18 21 34 -2 35 -1 7 5 -20 5 -26
10 -17 15 6 5 12 13 12 19 0 7 -4 7 -13 0 -21 -17 -35 0 -29 37 l5 33 23 -30
c23 -29 25 -29 61 -16z m-4924 27 c-7 -2 -21 -2 -30 0 -10 3 -4 5 12 5 17 0
24 -2 18 -5z m3137 -15 c0 -13 -23 -5 -28 10 -2 7 2 10 12 6 9 -3 16 -11 16
-16z m3050 0 c0 -6 -7 -7 -16 -4 -9 3 -18 6 -20 6 -3 0 -3 4 1 10 7 11 35 2
35 -12z m-6253 6 c-3 -3 -12 -4 -19 -1 -8 3 -5 6 6 6 11 1 17 -2 13 -5z m983
3 c0 -2 -14 -16 -32 -33 l-32 -29 25 32 c20 27 39 41 39 30z m5217 -18 c-4
-13 1 -28 10 -37 10 -11 12 -17 4 -20 -6 -2 -8 -9 -4 -15 3 -6 -4 -3 -18 6
-13 9 -32 17 -42 17 -18 0 -18 2 -4 23 8 12 20 21 26 20 6 -2 11 4 11 12 0 8
5 15 11 15 7 0 9 -9 6 -21z m-6240 5 c-3 -3 -12 -4 -19 -1 -8 3 -5 6 6 6 11 1
17 -2 13 -5z m4923 -4 c0 -5 -5 -10 -11 -10 -5 0 -7 5 -4 10 3 6 8 10 11 10 2
0 4 -4 4 -10z m977 -12 c-3 -8 -6 -5 -6 6 -1 11 2 17 5 13 3 -3 4 -12 1 -19z
m-5649 -13 c9 -18 8 -26 -1 -31 -7 -4 -9 -3 -4 1 4 5 0 19 -8 32 -9 13 -12 23
-7 23 5 0 14 -11 20 -25z m532 22 c0 -2 -12 -14 -27 -28 l-28 -24 24 28 c23
25 31 32 31 24z m2320 -18 c0 -5 -9 -9 -20 -9 -22 0 -27 16 -7 23 15 5 27 -1
27 -14z m2529 -16 c-1 -38 -1 -38 -9 -9 -8 27 -6 46 6 46 2 0 4 -17 3 -37z
m-3183 -3 c21 0 17 -17 -6 -23 -16 -4 -20 0 -19 21 0 15 3 21 6 15 2 -7 11
-13 19 -13z m-1292 -2 c4 6 13 9 21 6 8 -4 13 -10 10 -15 -3 -4 -12 -6 -20 -2
-8 3 -15 0 -15 -7 0 -10 -3 -10 -15 0 -8 7 -12 17 -9 22 4 6 9 6 14 -2 5 -8
10 -9 14 -2z m2766 5 c0 -5 -13 -17 -28 -27 l-27 -19 24 26 c26 28 31 32 31
20z m1321 -10 c13 -15 12 -15 -8 -4 -24 12 -29 21 -14 21 5 0 15 -7 22 -17z
m-681 -3 c17 9 25 9 34 -1 8 -9 7 -11 -6 -6 -10 3 -20 2 -23 -3 -11 -17 -45
-11 -45 8 0 13 2 14 9 3 7 -10 13 -11 31 -1z m830 -16 c0 -2 -9 0 -20 6 -11 6
-20 13 -20 16 0 2 9 0 20 -6 11 -6 20 -13 20 -16z m-1610 12 c0 -2 -7 -7 -16
-10 -8 -3 -12 -2 -9 4 6 10 25 14 25 6z m369 -10 c9 -10 8 -15 -3 -19 -10 -4
-14 0 -13 14 2 23 1 23 16 5z m496 4 c-4 -6 -1 -18 7 -27 12 -15 11 -15 -9 -4
-26 13 -31 41 -7 41 8 0 12 -5 9 -10z m109 -5 c-4 -8 -11 -15 -16 -15 -6 0 -5
6 2 15 7 8 14 15 16 15 2 0 1 -7 -2 -15z m53 2 c-10 -7 -27 -19 -38 -28 -18
-15 -17 -17 11 -44 17 -16 30 -33 30 -39 0 -6 -21 10 -47 36 -27 25 -61 53
-78 61 -16 9 -25 16 -20 17 6 0 26 -9 46 -19 l36 -19 24 23 c13 13 31 24 39
24 11 0 11 -3 -3 -12z m-5152 -7 c3 -5 1 -10 -4 -10 -6 0 -11 5 -11 10 0 6 2
10 4 10 3 0 8 -4 11 -10z m1560 0 c3 -5 1 -10 -4 -10 -6 0 -11 5 -11 10 0 6 2
10 4 10 3 0 8 -4 11 -10z m85 -5 c0 -8 -4 -15 -9 -15 -5 0 -17 -3 -26 -6 -15
-6 -15 -4 -4 15 16 24 39 28 39 6z m4507 -5 c13 0 13 -3 3 -15 -11 -13 -15
-13 -21 -3 -5 7 -8 20 -8 28 0 10 2 11 6 3 2 -7 12 -13 20 -13z m398 0 c-3 -5
1 -10 7 -13 10 -3 8 -10 -6 -25 -10 -12 -22 -19 -27 -17 -4 3 -10 1 -14 -5 -3
-5 -12 -10 -18 -10 -7 1 -2 9 11 20 l23 19 -49 -3 c-27 -2 -55 -7 -63 -11 -9
-5 -9 -2 2 9 9 9 26 18 38 19 12 1 28 9 37 18 14 16 69 15 59 -1z m-4848 -8
c-15 -16 -15 -19 4 -30 11 -7 17 -17 14 -22 -3 -5 0 -12 6 -16 8 -5 8 -9 -1
-14 -9 -6 -10 -12 -1 -26 6 -11 11 -14 11 -9 6 58 20 83 20 37 0 -17 5 -34 10
-37 6 -3 10 -15 10 -26 0 -10 5 -19 11 -19 6 0 9 9 6 20 -3 11 -1 18 4 14 5
-3 9 -19 9 -35 0 -19 -4 -28 -11 -24 -6 4 -10 1 -8 -6 1 -8 1 -25 0 -39 -1
-22 -3 -23 -12 -8 -5 10 -9 28 -8 40 1 13 1 36 1 52 -2 23 -5 26 -15 17 -8 -6
-17 -8 -20 -4 -4 3 -7 1 -7 -6 0 -8 7 -11 15 -7 16 6 21 -9 6 -18 -4 -3 -6
-28 -3 -56 3 -35 1 -50 -7 -50 -7 0 -9 5 -6 10 10 15 -3 12 -25 -7 -24 -21
-26 -41 -5 -49 8 -4 12 -10 9 -15 -3 -5 -10 -7 -15 -4 -5 4 -9 -4 -9 -17 0
-18 -2 -20 -10 -8 -8 12 -10 12 -15 -3 -5 -12 -12 -14 -23 -8 -11 6 -22 1 -39
-18 -21 -22 -23 -23 -14 -4 6 12 16 25 22 29 6 3 8 17 5 29 -5 19 -3 22 14 18
23 -6 25 -14 8 -31 -9 -9 -9 -12 0 -12 7 0 12 5 12 10 0 6 8 10 18 10 16 1 16
2 -1 15 -18 13 -18 14 2 34 23 23 26 42 10 58 -8 8 -7 11 5 10 9 -1 26 14 38
33 15 24 17 31 6 22 -10 -8 -19 -9 -22 -3 -4 5 -1 13 5 17 13 8 -48 67 -63 62
-12 -4 -9 -24 3 -21 4 2 6 -4 3 -12 -4 -8 -12 -15 -19 -15 -7 0 -20 -2 -27 -5
-9 -4 -14 2 -14 15 0 13 5 19 13 16 7 -3 13 0 14 7 2 38 12 56 50 90 44 39 63
50 36 19z m3086 11 c7 -7 -22 -32 -38 -32 -5 0 -2 4 9 10 15 9 16 13 5 20 -11
7 -11 9 2 9 9 0 19 -3 22 -7z m411 -40 c-8 -50 -14 -55 -14 -11 0 30 6 48 17
48 1 0 0 -17 -3 -37z m1204 17 c3 -7 0 -10 -7 -6 -7 5 -9 1 -5 -8 3 -9 3 -16
-1 -16 -9 0 -30 23 -32 36 -3 15 40 10 45 -6z m-998 -21 c7 -13 7 -19 0 -19
-5 0 -10 7 -10 16 0 8 -4 12 -10 9 -5 -3 -10 1 -10 10 0 19 16 11 30 -16z
m-423 -11 c-3 -7 -5 -2 -5 12 0 14 2 19 5 13 2 -7 2 -19 0 -25z m-3397 5 c0
-14 -2 -15 -9 -4 -5 8 -14 10 -21 6 -9 -5 -11 -4 -6 3 11 18 36 14 36 -5z
m1725 7 c3 -5 1 -10 -4 -10 -6 0 -11 5 -11 10 0 6 2 10 4 10 3 0 8 -4 11 -10z
m1618 -10 c3 -11 1 -18 -4 -14 -5 3 -9 12 -9 20 0 20 7 17 13 -6z m222 10 c3
-5 1 -10 -4 -10 -6 0 -11 5 -11 10 0 6 2 10 4 10 3 0 8 -4 11 -10z m-160 -80
c13 -84 14 -96 6 -109 -5 -7 -10 17 -13 57 -4 52 -11 79 -29 103 l-23 33 26
-19 c19 -14 28 -33 33 -65z m-185 60 c0 -5 -2 -10 -4 -10 -3 0 -8 5 -11 10 -3
6 -1 10 4 10 6 0 11 -4 11 -10z m690 -23 c0 -5 -4 -5 -10 -2 -5 3 -10 14 -10
23 0 15 2 15 10 2 5 -8 10 -19 10 -23z m-4760 19 c0 -2 -7 -7 -16 -10 -8 -3
-12 -2 -9 4 6 10 25 14 25 6z m3477 -2 c-3 -3 -12 -4 -19 -1 -8 3 -5 6 6 6 11
1 17 -2 13 -5z m1070 -16 c-3 -8 -6 -5 -6 6 -1 11 2 17 5 13 3 -3 4 -12 1 -19z
m-967 3 c-1 -15 -18 -28 -52 -38 -32 -9 -36 -9 -30 6 5 13 3 14 -9 4 -8 -6
-18 -12 -24 -13 -19 -4 -60 -29 -47 -30 7 0 10 -5 6 -11 -4 -8 -9 -7 -15 2
-14 23 -11 26 54 52 83 34 117 42 117 28z m35 -1 c3 -6 -1 -7 -9 -4 -18 7 -21
14 -7 14 6 0 13 -4 16 -10z m495 6 c0 -3 -4 -8 -10 -11 -5 -3 -10 -1 -10 4 0
6 5 11 10 11 6 0 10 -2 10 -4z m217 -18 c-3 -8 -6 -5 -6 6 -1 11 2 17 5 13 3
-3 4 -12 1 -19z m188 -8 c9 -16 23 -30 31 -30 13 0 14 -3 5 -14 -6 -7 -9 -22
-6 -32 3 -11 0 -8 -7 6 -7 14 -16 28 -20 31 -5 3 -10 15 -13 27 -2 12 -7 27
-10 32 -3 6 -4 10 -1 10 3 0 12 -13 21 -30z m-3302 5 c-3 -9 -8 -14 -10 -11
-3 3 -2 9 2 15 9 16 15 13 8 -4z m1560 0 c11 -7 27 -12 38 -10 17 4 24 -6 20
-28 -1 -5 3 -6 8 -3 14 9 42 -5 34 -17 -4 -7 0 -8 11 -4 12 5 16 3 14 -5 -3
-7 -15 -15 -29 -18 -24 -6 -24 -6 5 -14 15 -4 26 -9 24 -12 -3 -2 -18 0 -33 6
-18 7 -25 15 -21 25 3 8 1 15 -4 15 -6 0 -10 -4 -10 -10 0 -5 -5 -10 -11 -10
-5 0 -8 4 -5 9 4 5 -3 7 -15 4 -18 -5 -20 -3 -14 16 7 23 5 24 -19 15 -9 -3
-16 -12 -16 -20 0 -16 -16 -19 -24 -5 -3 5 1 14 9 21 8 7 12 17 8 24 -22 34
-3 47 30 21z m907 4 c13 -9 12 -10 -3 -5 -11 3 -20 0 -23 -9 -7 -17 -42 -20
-64 -5 -11 7 -6 8 16 4 23 -4 33 -2 37 10 7 19 16 20 37 5z m905 -19 c9 -17
20 -28 25 -25 6 3 7 -1 4 -10 -4 -9 6 -31 22 -53 l27 -37 -26 24 c-21 19 -43
56 -75 124 -2 4 -1 7 2 7 3 0 13 -14 21 -30z m-2100 10 c4 -6 16 -8 28 -4 17
5 19 4 10 -6 -13 -14 -63 -6 -63 10 0 13 17 13 25 0z m641 -2 c13 -14 -7 -28
-25 -18 -10 5 -21 7 -24 3 -3 -3 -14 -2 -24 1 -14 6 -15 9 -4 15 15 10 67 8
77 -1z m947 -3 c-3 -9 -8 -14 -10 -11 -3 3 -2 9 2 15 9 16 15 13 8 -4z m1464
-42 c-3 -10 -5 -2 -5 17 0 19 2 27 5 18 2 -10 2 -26 0 -35z m-2632 27 c3 -5 2
-10 -4 -10 -5 0 -13 5 -16 10 -3 6 -2 10 4 10 5 0 13 -4 16 -10z m52 -5 c0 -8
-4 -15 -8 -15 -4 0 -9 7 -13 15 -3 9 0 15 8 15 7 0 13 -7 13 -15z m203 5 c0
-5 -4 -10 -10 -10 -5 0 -10 5 -10 10 0 6 5 10 10 10 6 0 10 -4 10 -10z m2358
-56 l-3 -26 -22 29 c-15 21 -17 30 -8 30 8 0 12 -4 9 -9 -3 -4 0 -8 5 -8 6 0
12 12 12 28 2 23 2 24 6 5 2 -13 3 -34 1 -49z m-4394 40 c5 -14 4 -15 -9 -4
-17 14 -19 20 -6 20 5 0 12 -7 15 -16z m73 -21 c-3 -10 -5 -4 -5 12 0 17 2 24
5 18 2 -7 2 -21 0 -30z m1833 27 c0 -5 -2 -10 -4 -10 -3 0 -8 5 -11 10 -3 6
-1 10 4 10 6 0 11 -4 11 -10z m-810 -10 c0 -5 -5 -10 -11 -10 -5 0 -7 5 -4 10
3 6 8 10 11 10 2 0 4 -4 4 -10z m445 0 c3 -5 -3 -10 -15 -10 -12 0 -18 5 -15
10 3 6 10 10 15 10 5 0 12 -4 15 -10z m1845 -21 c15 -28 5 -23 -15 7 -9 15
-12 23 -6 20 6 -4 16 -16 21 -27z m261 1 c6 0 5 -8 -1 -20 -17 -31 -26 -23
-21 18 3 20 6 29 9 20 2 -10 8 -18 13 -18z m-2176 10 c3 -5 -1 -10 -9 -10 -8
0 -18 5 -21 10 -3 6 1 10 9 10 8 0 18 -4 21 -10z m491 -10 c8 0 14 -6 14 -14
0 -10 16 -13 65 -11 47 2 64 0 61 -9 -4 -6 -9 -19 -12 -28 -8 -23 -19 -23 -44
2 -23 23 -41 25 -58 8 -9 -9 -16 -8 -30 6 -9 11 -11 16 -4 12 18 -10 15 -1 -5
15 -9 8 -14 9 -10 3 4 -7 -4 -11 -23 -12 -16 0 -38 -5 -49 -11 -29 -16 -40
-13 -34 9 7 25 22 35 34 23 14 -14 60 -3 67 15 4 11 7 12 10 4 2 -7 10 -12 18
-12z m-2306 0 c0 -5 -5 -10 -11 -10 -5 0 -7 5 -4 10 3 6 8 10 11 10 2 0 4 -4
4 -10z m2167 -10 c-1 -11 -7 -20 -14 -20 -14 0 -18 22 -6 33 12 13 22 7 20
-13z m368 10 c-3 -5 -10 -10 -16 -10 -5 0 -9 5 -9 10 0 6 7 10 16 10 8 0 12
-4 9 -10z m1253 -15 c-3 -3 -9 2 -12 12 -6 14 -5 15 5 6 7 -7 10 -15 7 -18z
m-1288 5 c0 -5 -5 -10 -11 -10 -5 0 -7 5 -4 10 3 6 8 10 11 10 2 0 4 -4 4 -10z
m68 -4 c-26 -19 -22 -27 10 -21 23 5 24 4 9 -5 -9 -6 -15 -15 -12 -21 3 -5 -1
-6 -9 -3 -11 4 -16 0 -16 -11 0 -11 -5 -15 -15 -11 -13 5 -42 -29 -38 -45 1
-3 -15 -10 -35 -15 -33 -9 -38 -8 -38 7 0 13 4 15 13 8 14 -12 36 -2 28 12 -4
5 0 9 7 9 20 1 80 59 73 71 -8 12 13 39 29 39 6 0 3 -7 -6 -14z m659 -18 c-3
-8 -6 -5 -6 6 -1 11 2 17 5 13 3 -3 4 -12 1 -19z m-4413 -9 c-3 -5 -10 -7 -15
-3 -5 3 -7 10 -3 15 3 5 10 7 15 3 5 -3 7 -10 3 -15z m1534 2 c-13 -21 -57
-45 -66 -37 -2 3 7 11 22 17 14 7 26 18 26 26 0 7 7 13 15 13 12 0 13 -3 3
-19z m82 3 c0 -8 -5 -12 -10 -9 -6 4 -8 11 -5 16 9 14 15 11 15 -7z m220 6 c0
-5 -5 -10 -11 -10 -5 0 -7 5 -4 10 3 6 8 10 11 10 2 0 4 -4 4 -10z m1990 0 c0
-5 -2 -10 -4 -10 -3 0 -8 5 -11 10 -3 6 -1 10 4 10 6 0 11 -4 11 -10z m770 -2
c0 -9 -23 -16 -37 -10 -21 7 -14 17 12 17 14 0 25 -3 25 -7z m1743 6 c4 -4 3
-12 0 -18 -13 -20 -13 -48 -1 -65 9 -12 8 -12 -7 1 -18 17 -20 17 -50 -10 -26
-23 -25 -22 4 11 35 37 35 45 3 28 -9 -4 -32 -11 -49 -14 -25 -5 -33 -3 -33 8
0 10 10 13 35 11 24 -1 42 4 59 19 14 12 23 25 19 29 -3 3 -2 6 4 6 5 0 13 -3
16 -6z m-4973 -39 c0 -5 -5 -3 -10 5 -5 8 -10 20 -10 25 0 6 5 3 10 -5 5 -8
10 -19 10 -25z m2094 26 c3 -5 -2 -15 -11 -22 -14 -12 -16 -12 -8 0 6 11 4 13
-11 8 -18 -7 -18 -7 0 8 23 18 23 18 30 6z m2794 -5 c-7 -8 -16 -12 -21 -9
-11 7 2 23 19 23 12 0 12 -2 2 -14z m-5850 -21 c-3 -3 -9 2 -12 12 -6 14 -5
15 5 6 7 -7 10 -15 7 -18z m851 -9 c-3 -3 -11 5 -18 17 -13 21 -12 21 5 5 10
-10 16 -20 13 -22z m598 16 c-24 -26 -21 -39 3 -17 11 10 20 13 20 8 0 -9 -24
-24 -40 -24 -3 -1 -11 -5 -17 -11 -7 -6 -13 -8 -13 -4 0 8 51 66 58 66 3 0 -2
-8 -11 -18z m3110 -14 c-3 -8 -6 -5 -6 6 -1 11 2 17 5 13 3 -3 4 -12 1 -19z
m184 -1 c-10 -9 -11 -8 -5 6 3 10 9 15 12 12 3 -3 0 -11 -7 -18z m35 3 c0 -11
-6 -20 -12 -20 -7 0 -10 8 -7 20 3 11 8 20 12 20 4 0 7 -9 7 -20z m-3272 -25
c-14 -19 -29 -35 -31 -35 -5 0 7 18 36 53 26 31 23 18 -5 -18z m1356 26 c0 -5
-9 -7 -20 -4 -11 3 -20 7 -20 9 0 2 9 4 20 4 11 0 20 -4 20 -9z m704 -1 c14 5
26 6 26 2 0 -4 -15 -14 -34 -20 -19 -7 -58 -32 -87 -55 -29 -23 -50 -36 -45
-29 4 7 30 30 56 51 39 31 46 41 37 52 -10 11 -9 11 4 1 12 -9 24 -10 43 -2z
m-2180 -34 c-3 -15 -8 -25 -11 -23 -2 3 -1 17 3 31 3 15 8 25 11 23 2 -3 1
-17 -3 -31z m1706 12 c0 -19 -2 -20 -10 -8 -13 19 -13 30 0 30 6 0 10 -10 10
-22z m-3449 -5 c11 -16 11 -16 -1 -5 -12 10 -18 9 -33 -10 -18 -23 -13 -5 6
20 12 15 12 15 28 -5z m749 13 c0 -2 -16 -13 -35 -25 -41 -24 -48 -14 -7 11
26 17 42 22 42 14z m415 -6 c-3 -5 -12 -10 -18 -10 -7 0 -6 4 3 10 19 12 23
12 15 0z m106 -8 c-7 -13 -6 -23 1 -30 9 -9 9 -12 1 -12 -6 0 -14 6 -17 13 -4
6 -4 1 -2 -12 l5 -25 -23 25 c-23 24 -17 42 11 32 7 -3 13 2 13 11 0 9 5 16
10 16 7 0 7 -6 1 -18z m3779 -7 c13 -14 21 -25 18 -25 -2 0 -15 11 -28 25 -13
14 -21 25 -18 25 2 0 15 -11 28 -25z m-3573 -15 c0 -18 -3 -26 -8 -19 -6 10
-11 10 -22 1 -14 -12 -27 -7 -27 12 0 6 4 5 8 -2 7 -10 13 -6 28 13 10 14 19
25 20 25 0 0 1 -14 1 -30z m2037 16 c-3 -8 -12 -12 -21 -9 -12 5 -12 7 -1 14
20 13 28 11 22 -5z m286 9 c0 -6 -73 -25 -78 -20 -2 2 11 8 29 14 41 11 49 12
49 6z m1219 -29 c-3 -3 -11 5 -18 17 -13 21 -12 21 5 5 10 -10 16 -20 13 -22z
m167 2 l29 -32 -32 25 c-18 13 -32 27 -32 32 -1 12 4 8 35 -25z m-587 -12 c-3
-3 -11 5 -18 17 -13 21 -12 21 5 5 10 -10 16 -20 13 -22z m-4200 -21 c0 -5 -4
-3 -9 5 -5 8 -9 22 -9 30 0 16 17 -16 18 -35z m100 13 c0 -27 -2 -29 -8 -13
-5 11 -6 26 -4 33 8 21 13 13 12 -20z m446 22 c-3 -5 -11 -10 -16 -10 -6 0 -7
5 -4 10 3 6 11 10 16 10 6 0 7 -4 4 -10z m96 -7 c13 -17 13 -17 -6 -3 -11 8
-22 16 -24 17 -2 2 0 3 6 3 6 0 17 -8 24 -17z m366 -2 c0 -11 -5 -17 -11 -14
-5 4 -7 0 -4 -9 4 -8 -2 -19 -12 -26 -23 -14 -44 7 -33 34 6 17 8 16 14 -6 l7
-25 13 33 c15 36 29 42 26 13z m1911 -8 c1 -22 0 -24 -8 -13 -12 18 -13 40 -2
40 4 0 9 -12 10 -27z m-2208 -43 c6 0 10 -5 10 -11 0 -5 -4 -7 -10 -4 -14 9
-13 -8 2 -23 9 -9 9 -12 0 -12 -7 0 -12 4 -12 10 0 10 -52 40 -70 40 -6 0 -8
-5 -4 -12 4 -7 3 -8 -4 -4 -7 4 -12 12 -12 18 0 10 27 7 65 -7 l20 -8 -20 16
c-12 10 -15 16 -7 17 9 0 11 8 8 23 -3 12 1 7 9 -10 8 -18 20 -33 25 -33z
m490 20 c0 -13 -1 -13 -10 0 -5 8 -10 22 -10 30 0 13 1 13 10 0 5 -8 10 -22
10 -30z m180 36 c0 -2 -7 -9 -15 -16 -13 -11 -14 -10 -9 4 5 14 24 23 24 12z
m-245 -16 c-3 -5 -11 -10 -16 -10 -6 0 -7 5 -4 10 3 6 11 10 16 10 6 0 7 -4 4
-10z m1680 -8 c-3 -3 -11 0 -18 7 -9 10 -8 11 6 5 10 -3 15 -9 12 -12z m190 8
c4 -6 -6 -10 -22 -9 -25 0 -26 1 -8 9 11 5 21 9 22 9 1 1 5 -3 8 -9z m-2520
-19 c-3 -6 -16 -16 -28 -22 -20 -10 -20 -9 3 14 25 24 38 28 25 8z m280 -11
c-3 -5 0 -10 7 -13 7 -2 5 -3 -4 -2 -10 2 -18 -3 -18 -10 0 -8 -4 -16 -9 -19
-4 -3 -6 6 -3 19 2 14 9 25 14 25 6 0 4 8 -3 18 -13 15 -12 16 3 3 10 -7 16
-17 13 -21z m3905 26 c0 -3 -4 -8 -10 -11 -5 -3 -10 -1 -10 4 0 6 5 11 10 11
6 0 10 -2 10 -4z m1277 -14 c-9 -9 -20 -29 -26 -42 -7 -18 -10 -20 -10 -7 -1
22 27 67 42 67 5 0 3 -8 -6 -18z m-5548 4 c-2 -2 -14 -9 -26 -15 -19 -10 -22
-9 -17 4 4 8 15 15 27 15 11 0 18 -2 16 -4z m714 -17 c12 -9 -60 -52 -76 -46
-7 4 -3 8 10 12 13 4 20 12 17 17 -7 11 28 40 36 30 3 -4 9 -10 13 -13z m2387
16 c0 -2 -20 -18 -45 -35 -57 -39 -59 -31 -3 10 41 30 48 34 48 25z m-2964
-14 c-4 -5 0 -11 6 -14 7 -2 10 -7 7 -11 -3 -3 -14 3 -24 14 -17 18 -17 20 -1
20 9 0 15 -4 12 -9z m785 -23 c-10 -18 -22 -32 -27 -31 -5 1 -16 -4 -24 -10
-13 -10 -13 -10 -1 5 7 10 17 16 21 13 5 -3 13 9 19 25 5 17 15 30 20 30 6 0
2 -15 -8 -32z m550 -1 l-23 -22 17 28 c10 15 20 25 23 22 3 -3 -5 -16 -17 -28z
m1269 18 c-7 -8 -17 -15 -23 -15 -6 0 -2 7 9 15 25 19 30 19 14 0z m200 0
c-33 -19 -49 -19 -24 0 10 8 26 14 34 14 9 0 4 -6 -10 -14z m-2756 -10 c-4 -8
-8 -15 -10 -15 -2 0 -4 7 -4 15 0 8 4 15 10 15 5 0 7 -7 4 -15z m4770 -6 c-6
-11 -24 -2 -24 11 0 5 7 7 15 4 8 -4 12 -10 9 -15z m-5654 6 c0 -2 -10 -9 -22
-15 -22 -11 -22 -10 -4 4 21 17 26 19 26 11z m414 -11 c3 -8 2 -12 -4 -9 -6 3
-10 10 -10 16 0 14 7 11 14 -7z m4056 -28 c0 -12 -5 -7 -19 24 -11 24 -11 24
3 6 9 -11 16 -24 16 -30z m90 9 c0 -5 -5 -3 -10 5 -5 8 -10 20 -10 25 0 6 5 3
10 -5 5 -8 10 -19 10 -25z m-4273 -10 l28 -26 -37 22 c-38 21 -46 29 -29 29 6
0 23 -11 38 -25z m1139 -5 c-4 -28 -2 -30 17 -24 12 3 26 10 32 15 5 5 16 9
25 9 12 -1 12 -2 -3 -11 -9 -6 -33 -33 -52 -62 -19 -28 -35 -44 -35 -36 0 9
-7 22 -15 29 -12 10 -16 9 -21 -4 -3 -9 -11 -16 -17 -16 -5 0 -2 9 8 20 13 14
22 17 30 10 10 -8 13 -5 11 15 -1 22 -6 25 -36 25 -26 0 -31 3 -20 10 13 8 12
10 -2 10 -10 0 -18 -7 -18 -15 0 -10 11 -15 33 -16 30 0 31 -1 8 -10 -25 -10
-51 3 -51 26 0 9 -8 11 -22 7 -21 -5 -21 -6 -2 -21 10 -9 20 -21 20 -26 1 -6
5 -21 8 -35 7 -24 6 -24 -9 3 -9 15 -20 27 -25 27 -6 0 -9 5 -7 12 1 7 -5 13
-13 13 -8 1 -14 6 -13 12 1 6 -8 10 -21 9 -13 0 -22 -4 -19 -8 2 -5 -3 -8 -11
-8 -18 0 -19 2 -10 24 5 12 15 14 49 10 27 -4 45 -2 49 5 9 14 77 4 88 -13 5
-8 8 -7 8 2 0 7 4 11 9 7 5 -3 12 4 16 15 10 30 17 24 11 -10z m572 -11 c-3
-20 -5 -19 -9 9 -3 20 -2 29 4 23 5 -5 7 -19 5 -32z m202 26 c-7 -8 -17 -15
-23 -15 -6 0 -2 7 9 15 25 19 30 19 14 0z m-940 1 c0 -2 -7 -6 -15 -10 -8 -3
-15 -1 -15 4 0 6 7 10 15 10 8 0 15 -2 15 -4z m456 -44 c4 -20 10 -39 15 -42
4 -3 1 -14 -7 -24 -13 -18 -14 -17 -14 21 0 23 -4 53 -10 68 -6 16 -6 24 0 20
5 -3 12 -22 16 -43z m2934 44 c0 -3 -4 -8 -10 -11 -5 -3 -10 -1 -10 4 0 6 5
11 10 11 6 0 10 -2 10 -4z m1542 -13 c43 -16 50 -16 58 -3 5 8 10 11 10 5 0
-27 -46 -42 -66 -22 -4 4 -15 7 -24 7 -20 0 -61 29 -41 30 7 0 35 -8 63 -17z
m-2702 3 c0 -2 -7 -7 -16 -10 -8 -3 -12 -2 -9 4 6 10 25 14 25 6z m206 -3 c-2
-3 -8 -5 -13 -6 -4 -1 -30 -27 -58 -58 -27 -31 -52 -55 -54 -53 -7 6 102 121
116 121 7 0 11 -2 9 -4z m1184 -18 c13 -14 22 -27 19 -29 -2 -1 -16 10 -31 25
-15 16 -24 29 -19 29 4 0 18 -11 31 -25z m180 9 c0 -2 -7 -4 -15 -4 -8 0 -15
4 -15 10 0 5 7 7 15 4 8 -4 15 -8 15 -10z m-2770 3 c0 -2 -10 -12 -22 -23
l-23 -19 19 23 c18 21 26 27 26 19z m3285 -7 c3 -5 1 -10 -4 -10 -6 0 -11 5
-11 10 0 6 2 10 4 10 3 0 8 -4 11 -10z m-3455 -4 c0 -2 -8 -10 -17 -17 -16
-13 -17 -12 -4 4 13 16 21 21 21 13z m20 -31 c-18 -19 -36 -32 -39 -29 -6 6
54 64 66 64 4 0 -8 -16 -27 -35z m-970 -4 c0 -5 -11 -8 -25 -8 -13 0 -22 3
-19 8 3 5 14 9 25 9 10 0 19 -4 19 -9z m81 -21 c-12 -7 -13 -11 -1 -24 11 -14
10 -16 -4 -10 -9 3 -16 1 -16 -6 0 -6 -5 -8 -10 -5 -6 3 -14 -4 -20 -17 l-9
-23 -7 22 c-3 13 -10 20 -15 17 -14 -8 -5 30 11 47 8 9 24 14 37 11 15 -3 23
0 23 9 0 10 3 10 12 1 10 -10 10 -15 -1 -22z m4181 -2 c-8 -8 -9 -4 -5 13 4
13 8 18 11 10 2 -7 -1 -18 -6 -23z m-3352 8 c0 -15 -48 -28 -56 -15 -3 5 5 13
18 18 32 13 38 13 38 -3z m2569 -8 c11 -15 11 -18 -1 -18 -7 0 -14 10 -15 21
-1 12 -1 20 0 18 2 -2 9 -12 16 -21z m979 -9 c-3 -8 -7 -3 -11 10 -4 17 -3 21
5 13 5 -5 8 -16 6 -23z m-5707 4 c13 -15 12 -15 -8 -4 -24 12 -29 21 -14 21 5
0 15 -7 22 -17z m348 13 c-2 -2 -17 -6 -34 -10 -22 -5 -26 -4 -15 4 14 9 59
15 49 6z m-429 -9 c0 -2 -15 -16 -32 -33 l-33 -29 29 33 c28 30 36 37 36 29z
m2145 -7 c-11 -5 -27 -9 -35 -9 -9 0 -8 4 5 9 11 5 27 9 35 9 9 0 8 -4 -5 -9z
m3725 -38 c0 -32 -8 -25 -20 17 -8 28 -7 31 5 21 8 -7 15 -24 15 -38z m522 26
c-7 -7 -12 -8 -12 -2 0 14 12 26 19 19 2 -3 -1 -11 -7 -17z m-6032 7 c0 -2
-10 -9 -22 -15 -22 -11 -22 -10 -4 4 21 17 26 19 26 11z m1694 -42 c-20 -20
-45 -37 -55 -38 -18 -2 -18 -1 -2 18 19 21 73 57 85 57 4 0 -8 -17 -28 -37z
m3122 -6 c4 -4 -12 -1 -35 8 -24 8 -47 12 -52 9 -5 -3 -9 1 -9 9 0 13 6 13 45
-2 24 -9 47 -20 51 -24z m404 6 c-11 -17 -11 -17 -6 0 3 10 6 24 7 30 0 9 2 9
5 0 3 -7 0 -20 -6 -30z m718 15 c-7 -13 -11 -27 -9 -33 1 -5 -1 -7 -5 -2 -10
10 -13 47 -3 41 4 -2 10 0 14 6 12 20 15 9 3 -12z m-4679 -12 c-13 -13 -32
-34 -42 -47 -26 -35 -8 0 20 39 13 17 29 32 35 32 6 0 0 -11 -13 -24z m621 21
c0 -2 -19 -21 -41 -42 -26 -25 -37 -32 -30 -18 13 25 71 74 71 60z m3177 -19
c-3 -8 -6 -5 -6 6 -1 11 2 17 5 13 3 -3 4 -12 1 -19z m290 -25 c-3 -10 -5 -2
-5 17 0 19 2 27 5 18 2 -10 2 -26 0 -35z m-4732 27 c3 -5 2 -10 -4 -10 -5 0
-13 5 -16 10 -3 6 -2 10 4 10 5 0 13 -4 16 -10z m4645 0 c0 -5 -2 -10 -4 -10
-3 0 -8 5 -11 10 -3 6 -1 10 4 10 6 0 11 -4 11 -10z m-1713 -72 c-2 -13 -4 -3
-4 22 0 25 2 35 4 23 2 -13 2 -33 0 -45z m2513 58 c0 -2 -8 -10 -17 -17 -16
-13 -17 -12 -4 4 13 16 21 21 21 13z m-4533 -28 c-3 -8 -6 -5 -6 6 -1 11 2 17
5 13 3 -3 4 -12 1 -19z m4127 6 c5 -14 4 -15 -9 -4 -17 14 -19 20 -6 20 5 0
12 -7 15 -16z m-4708 -20 c-4 -9 -9 -15 -11 -12 -3 3 -3 13 1 22 4 9 9 15 11
12 3 -3 3 -13 -1 -22z m4844 16 c-8 -5 -22 -10 -30 -10 -13 0 -13 1 0 10 8 5
22 10 30 10 13 0 13 -1 0 -10z m120 6 c0 -2 -8 -10 -17 -17 -16 -13 -17 -12
-4 4 13 16 21 21 21 13z m-4828 -13 c-6 -2 -10 -9 -6 -14 3 -5 0 -9 -5 -9 -12
0 -14 13 -4 23 3 4 11 7 17 6 6 0 5 -3 -2 -6z m4393 -18 c-62 -30 -60 -30 -62
-3 -2 17 0 19 7 8 8 -12 13 -12 42 2 18 9 40 17 48 17 8 0 -7 -11 -35 -24z
m-3885 8 c-8 -3 -24 -10 -35 -15 -20 -9 -20 -9 -1 6 11 9 27 16 35 15 14 0 14
-1 1 -6z m3356 -9 c18 -14 18 -14 -6 -3 -31 14 -36 19 -24 19 6 0 19 -7 30
-16z m329 -21 c10 -21 21 -41 23 -45 2 -5 -3 -8 -10 -8 -7 0 -20 20 -29 45
-20 55 -11 59 16 8z m-5755 24 c0 -2 -16 -18 -35 -37 -19 -19 -35 -31 -35 -27
0 3 15 20 33 36 31 30 37 34 37 28z m1460 -1 c0 -3 -4 -8 -10 -11 -5 -3 -10
-1 -10 4 0 6 5 11 10 11 6 0 10 -2 10 -4z m45 -6 c3 -6 -1 -7 -9 -4 -18 7 -21
14 -7 14 6 0 13 -4 16 -10z m4320 -9 c-3 -6 -11 -11 -16 -11 -5 0 -4 6 3 14
14 16 24 13 13 -3z m-3695 -6 c-7 -8 -17 -12 -23 -8 -6 4 -3 9 9 14 27 11 28
11 14 -6z m3050 7 c0 -5 -7 -17 -16 -28 -8 -10 -14 -14 -11 -9 2 6 7 18 10 28
7 17 17 23 17 9z m-4351 -23 c12 -12 20 -23 18 -26 -3 -2 -16 7 -30 21 -31 31
-20 35 12 5z m571 1 c-6 -11 -13 -20 -16 -20 -2 0 0 9 6 20 6 11 13 20 16 20
2 0 0 -9 -6 -20z m4775 -28 c-19 -27 -32 -51 -29 -54 2 -3 -2 -8 -11 -12 -14
-5 -14 -1 2 27 10 17 22 35 27 38 5 4 6 14 3 22 -4 11 -1 14 7 11 8 -3 17 -1
21 5 3 6 8 11 11 11 2 0 -12 -22 -31 -48z m-1369 13 c3 -13 4 -30 1 -37 -3 -7
-6 -1 -6 14 -1 15 -9 32 -18 37 -17 10 -17 10 -1 11 10 0 20 -10 24 -25z
m1229 -30 c7 -24 9 -49 5 -55 -6 -9 -30 73 -30 102 0 23 15 -5 25 -47z m325
15 c-6 -11 -13 -20 -16 -20 -2 0 0 9 6 20 6 11 13 20 16 20 2 0 0 -9 -6 -20z
m-373 -12 c-3 -8 -6 -5 -6 6 -1 11 2 17 5 13 3 -3 4 -12 1 -19z m83 12 c0 -5
-5 -10 -11 -10 -5 0 -7 5 -4 10 3 6 8 10 11 10 2 0 4 -4 4 -10z m250 0 c0 -5
-15 -17 -32 -26 l-33 -17 19 21 c10 12 23 19 27 16 5 -3 9 0 9 5 0 6 2 11 5
11 3 0 5 -4 5 -10z m-363 -22 c-3 -8 -6 -5 -6 6 -1 11 2 17 5 13 3 -3 4 -12 1
-19z m-353 -14 c3 -8 2 -12 -4 -9 -6 3 -10 10 -10 16 0 14 7 11 14 -7z m176 2
c0 -3 -4 -8 -10 -11 -5 -3 -10 -1 -10 4 0 6 5 11 10 11 6 0 10 -2 10 -4z m41
-19 c-10 -9 -11 -8 -5 6 3 10 9 15 12 12 3 -3 0 -11 -7 -18z m176 1 c-3 -8 -6
-5 -6 6 -1 11 2 17 5 13 3 -3 4 -12 1 -19z m-137 -31 c4 -19 4 -41 -1 -48 -6
-9 -9 -2 -9 23 0 20 -3 45 -7 55 -3 10 -3 15 1 11 4 -3 11 -22 16 -41z m-242
-12 c-3 -3 -9 2 -12 12 -6 14 -5 15 5 6 7 -7 10 -15 7 -18z m-338 -20 c19 -19
32 -35 29 -35 -3 0 -20 16 -39 35 -19 19 -32 35 -29 35 3 0 20 -16 39 -35z
m-2645 -5 c3 -5 1 -10 -4 -10 -6 0 -11 5 -11 10 0 6 2 10 4 10 3 0 8 -4 11
-10z m3095 6 c0 -2 -7 -7 -16 -10 -8 -3 -12 -2 -9 4 6 10 25 14 25 6z m382
-28 c-7 -7 -12 -8 -12 -2 0 14 12 26 19 19 2 -3 -1 -11 -7 -17z m-3794 -13
c-3 -3 -9 2 -12 12 -6 14 -5 15 5 6 7 -7 10 -15 7 -18z m2907 15 c3 -6 -1 -7
-9 -4 -18 7 -21 14 -7 14 6 0 13 -4 16 -10z m212 -12 c-3 -8 -6 -5 -6 6 -1 11
2 17 5 13 3 -3 4 -12 1 -19z m250 0 c-3 -8 -6 -5 -6 6 -1 11 2 17 5 13 3 -3 4
-12 1 -19z m-3137 8 c0 -3 -4 -8 -10 -11 -5 -3 -10 -1 -10 4 0 6 5 11 10 11 6
0 10 -2 10 -4z m3211 -29 c-10 -9 -11 -8 -5 6 3 10 9 15 12 12 3 -3 0 -11 -7
-18z m116 1 c-3 -8 -6 -5 -6 6 -1 11 2 17 5 13 3 -3 4 -12 1 -19z m-606 -5
c13 -16 12 -17 -3 -4 -17 13 -22 21 -14 21 2 0 10 -8 17 -17z m349 2 c0 -8 -2
-15 -4 -15 -2 0 -6 7 -10 15 -3 8 -1 15 4 15 6 0 10 -7 10 -15z m-3309 -22
c-8 -15 -10 -15 -11 -2 0 17 10 32 18 25 2 -3 -1 -13 -7 -23z m2912 -3 c9 -11
13 -20 7 -20 -5 0 -14 9 -20 20 -6 11 -9 20 -8 20 2 0 11 -9 21 -20z m446 -24
c-9 -8 -10 -7 -5 7 3 10 7 24 7 30 1 7 3 4 6 -7 3 -10 -1 -23 -8 -30z m-3489
19 c-7 -8 -17 -15 -23 -15 -6 0 -2 7 9 15 25 19 30 19 14 0z m3140 -10 c13
-14 21 -25 18 -25 -2 0 -15 11 -28 25 -13 14 -21 25 -18 25 2 0 15 -11 28 -25z
m522 0 c3 -13 2 -22 -2 -20 -11 7 -20 45 -10 45 4 0 10 -11 12 -25z m-1326 -5
c8 0 14 -4 14 -10 0 -5 -8 -10 -19 -10 -22 0 -45 -25 -36 -40 3 -6 -3 -10 -14
-10 -24 0 -28 18 -6 26 8 4 15 13 15 21 0 8 4 12 9 8 5 -3 12 -1 16 5 3 5 1
10 -5 10 -6 0 -8 5 -4 12 6 9 9 9 12 0 2 -7 10 -12 18 -12z m199 10 c-3 -5
-14 -10 -23 -10 -15 0 -15 2 -2 10 20 13 33 13 25 0z m46 -6 c10 -13 10 -17
-1 -24 -10 -6 -9 -13 6 -32 11 -14 24 -23 31 -21 6 2 15 -1 19 -8 4 -7 3 -9
-3 -6 -5 3 -23 2 -39 -3 -21 -6 -23 -9 -9 -9 11 -1 27 -6 35 -12 12 -8 10 -10
-10 -5 -14 3 -34 -2 -44 -10 -11 -8 -37 -14 -57 -14 -21 0 -41 -5 -44 -11 -5
-7 -15 -5 -31 5 -27 19 -38 20 -28 5 5 -8 1 -8 -14 0 -11 6 -19 21 -19 36 0
21 2 23 11 11 6 -8 23 -20 38 -25 22 -8 26 -8 21 4 -3 8 0 15 5 15 6 0 12 -10
14 -22 3 -22 3 -22 31 4 34 31 34 40 2 28 -24 -9 -29 -6 -26 13 1 5 -7 8 -16
7 -32 -4 -37 0 -18 13 16 13 15 14 -14 9 -27 -4 -30 -7 -19 -20 11 -13 10 -14
-2 -9 -8 4 -23 10 -32 13 -26 9 -22 23 5 16 22 -5 22 -5 3 16 -11 12 -14 22
-9 22 6 0 13 -6 16 -14 4 -9 17 -12 41 -9 22 2 36 -1 36 -7 0 -6 5 -8 10 -5 6
3 10 2 10 -3 0 -5 19 -9 42 -8 39 1 41 3 43 31 1 17 -3 33 -9 37 -8 5 -8 8 0
8 6 0 17 -7 25 -16z m55 -29 c-2 -7 1 -18 7 -24 9 -9 8 -11 -5 -6 -9 4 -19 13
-22 21 -4 10 -2 12 6 8 8 -5 9 -2 5 10 -4 11 -3 15 4 11 6 -4 8 -13 5 -20z
m-86 5 c0 -5 -2 -10 -4 -10 -3 0 -8 5 -11 10 -3 6 -1 10 4 10 6 0 11 -4 11
-10z m-290 -19 c0 -6 -4 -13 -10 -16 -5 -3 -10 1 -10 9 0 9 5 16 10 16 6 0 10
-4 10 -9z m1009 -56 l-8 -40 3 42 c2 22 0 46 -5 52 -5 6 -3 5 5 -1 11 -10 12
-23 5 -53z m411 55 c10 -7 -4 -8 -45 -4 -33 4 -62 8 -64 10 -10 9 96 3 109 -6z
m573 -25 c-3 -9 -8 -14 -10 -11 -3 3 -2 9 2 15 9 16 15 13 8 -4z m-1923 -5 c0
-5 -2 -10 -4 -10 -3 0 -8 5 -11 10 -3 6 -1 10 4 10 6 0 11 -4 11 -10z m-2179
-17 c13 -16 12 -17 -3 -4 -10 7 -18 15 -18 17 0 8 8 3 21 -13z m2208 -26 c1
-5 -3 -5 -9 -2 -5 3 -10 1 -10 -4 0 -6 -4 -11 -8 -11 -12 0 -11 33 1 48 9 11
12 11 18 -5 4 -10 8 -22 8 -26z m961 2 c12 -22 20 -44 18 -49 -2 -4 -13 14
-25 41 -26 59 -21 65 7 8z m-1400 21 c0 -5 -5 -10 -11 -10 -5 0 -7 5 -4 10 3
6 8 10 11 10 2 0 4 -4 4 -10z m359 1 c9 -6 2 -10 -23 -13 -39 -4 -60 7 -29 15
29 8 37 7 52 -2z m-258 -24 c-10 -9 -11 -8 -5 6 3 10 9 15 12 12 3 -3 0 -11
-7 -18z m183 7 c4 -10 2 -13 -6 -8 -7 4 -8 3 -4 -5 4 -6 2 -18 -4 -26 -7 -8
-10 -24 -7 -35 3 -11 1 -20 -3 -20 -22 0 -40 14 -40 32 0 17 3 18 15 8 17 -14
20 1 5 35 -7 17 -9 17 -9 3 -1 -10 -6 -18 -11 -18 -7 0 -7 6 0 19 16 32 54 41
64 15z m1193 -6 c-3 -8 -6 -5 -6 6 -1 11 2 17 5 13 3 -3 4 -12 1 -19z m-2087
-12 c0 -3 -4 -8 -10 -11 -5 -3 -10 -1 -10 4 0 6 5 11 10 11 6 0 10 -2 10 -4z
m-630 -15 c0 -5 8 -12 18 -14 14 -4 14 -5 1 -6 -9 0 -22 6 -29 14 -9 10 -9 15
-1 15 6 0 11 -4 11 -9z m504 1 c3 -5 -1 -9 -9 -9 -8 0 -15 4 -15 9 0 10 17 10
24 0z m201 -2 c3 -5 1 -10 -4 -10 -6 0 -11 5 -11 10 0 6 2 10 4 10 3 0 8 -4
11 -10z m492 -12 c-3 -8 -6 -5 -6 6 -1 11 2 17 5 13 3 -3 4 -12 1 -19z m1242
-18 l22 -35 -25 28 c-14 15 -29 27 -35 27 -5 0 -12 4 -15 8 -2 4 3 8 13 8 10
0 28 -16 40 -36z m-2352 24 c-3 -3 -12 -4 -19 -1 -8 3 -5 6 6 6 11 1 17 -2 13
-5z m362 -11 c-7 -10 -14 -20 -16 -22 -1 -2 -1 6 0 18 1 11 8 21 15 21 12 0
12 -3 1 -17z m370 14 c-2 -1 -13 -9 -24 -17 -19 -14 -19 -14 -6 3 7 9 18 17
24 17 6 0 8 -1 6 -3z m488 -20 c10 4 14 2 9 -5 -3 -6 -2 -13 3 -17 5 -3 13 0
18 7 4 7 15 19 24 25 13 10 16 10 16 -4 0 -8 -9 -18 -19 -21 -10 -2 -18 -10
-18 -18 0 -7 -6 -11 -14 -8 -8 3 -17 1 -20 -4 -3 -5 -17 -7 -31 -5 -13 3 -23
9 -20 13 2 4 16 5 30 2 14 -2 25 0 25 6 0 6 -9 8 -20 5 -15 -4 -20 0 -20 14 0
25 14 40 18 19 2 -9 9 -13 19 -9z m283 13 c0 -5 -2 -10 -4 -10 -3 0 -8 5 -11
10 -3 6 -1 10 4 10 6 0 11 -4 11 -10z m78 2 c13 12 14 10 3 -9 -6 -13 -16 -23
-21 -23 -14 0 -22 19 -14 32 6 9 9 9 12 0 3 -10 7 -10 20 0z m-1042 -21 c-5
-13 -4 -13 8 2 14 18 32 24 21 7 -3 -5 0 -7 8 -4 8 3 18 1 22 -5 4 -7 -5 -11
-22 -12 -15 -1 -57 -3 -93 -5 -75 -4 -103 2 -80 16 9 6 17 5 22 -3 6 -9 14 -8
35 3 38 21 86 22 79 1z m1239 -7 c14 -15 22 -30 19 -35 -3 -5 0 -9 5 -9 6 0
11 -4 11 -10 0 -5 -7 -7 -15 -4 -9 4 -14 13 -13 22 2 8 -5 16 -15 18 -22 3
-36 14 -18 14 7 0 9 5 6 10 -11 17 -43 11 -50 -9 -3 -11 -13 -22 -21 -25 -22
-9 -13 26 11 41 31 19 54 15 80 -13z m110 16 c3 -5 -3 -10 -14 -10 -12 0 -21
5 -21 10 0 6 6 10 14 10 8 0 18 -4 21 -10z m-1105 -35 c0 -5 -4 -4 -9 4 -6 9
-11 10 -15 2 -4 -6 -16 -11 -28 -11 -17 0 -18 3 -8 14 6 8 18 12 26 9 8 -3 14
1 14 8 0 11 3 11 10 -1 5 -8 10 -19 10 -25z m1614 19 c5 -14 4 -15 -9 -4 -17
14 -19 20 -6 20 5 0 12 -7 15 -16z m-1577 0 c-3 -3 -12 -4 -19 -1 -8 3 -5 6 6
6 11 1 17 -2 13 -5z m260 0 c-3 -3 -12 -4 -19 -1 -8 3 -5 6 6 6 11 1 17 -2 13
-5z m63 2 c0 -2 -7 -6 -15 -10 -8 -3 -15 -1 -15 4 0 6 7 10 15 10 8 0 15 -2
15 -4z m510 -34 c0 -8 -1 -13 -3 -11 -1 2 -9 12 -16 22 -12 15 -12 17 3 11 9
-3 16 -13 16 -22z m680 2 c0 -2 -46 -3 -102 -2 l-103 2 75 5 c71 6 130 3 130
-5z m-1665 -4 c3 -6 -1 -7 -9 -4 -18 7 -21 14 -7 14 6 0 13 -4 16 -10z m745
-16 c0 -19 -7 -18 -31 5 -20 18 -20 18 6 14 14 -3 25 -12 25 -19z m1010 -9 c0
-5 -5 -3 -10 5 -5 8 -10 20 -10 25 0 6 5 3 10 -5 5 -8 10 -19 10 -25z m-1290
5 c0 -5 -5 -10 -11 -10 -5 0 -7 5 -4 10 3 6 8 10 11 10 2 0 4 -4 4 -10z m137
4 c-3 -3 -12 -4 -19 -1 -8 3 -5 6 6 6 11 1 17 -2 13 -5z m83 -3 c0 -9 -41 -23
-49 -16 -3 4 28 20 47 24 1 1 2 -3 2 -8z"/>
<path d="M3030 4450 c-30 -22 -50 -40 -44 -40 13 0 89 54 99 69 9 16 5 14 -55
-29z"/>
<path d="M3090 3340 c0 -13 5 -18 15 -14 8 4 15 12 15 20 0 8 -7 14 -15 14 -8
0 -15 -9 -15 -20z"/>
<path d="M2944 3318 c-10 -13 -15 -20 -10 -16 5 4 15 3 21 -2 15 -13 27 10 16
29 -5 8 -13 5 -27 -11z"/>
<path d="M2980 3060 c0 -5 7 -10 15 -10 8 0 15 5 15 10 0 6 -7 10 -15 10 -8 0
-15 -4 -15 -10z"/>
<path d="M3546 2932 c-10 -17 2 -32 25 -32 10 0 19 5 19 10 0 6 -6 10 -14 10
-8 0 -16 5 -18 12 -3 9 -6 9 -12 0z"/>
<path d="M3370 2910 c0 -13 5 -20 13 -17 6 2 12 10 12 17 0 7 -6 15 -12 18 -8
2 -13 -5 -13 -18z"/>
<path d="M2520 2385 c0 -15 6 -25 14 -25 23 0 27 29 6 40 -17 9 -20 7 -20 -15z"/>
<path d="M2573 2388 c-6 -7 -13 -26 -15 -41 -4 -21 -2 -27 8 -23 16 6 19 -10
5 -19 -14 -8 -41 -65 -41 -85 0 -12 6 -16 23 -13 19 4 22 11 23 49 1 26 8 52
17 62 21 22 22 55 3 71 -10 8 -16 8 -23 -1z"/>
<path d="M2095 2299 c-4 -6 -5 -12 -2 -15 2 -3 7 2 10 11 7 17 1 20 -8 4z"/>
<path d="M2377 2274 c-14 -14 -7 -35 11 -32 9 2 17 10 17 17 0 16 -18 25 -28
15z"/>
<path d="M2461 2225 c-37 -13 -29 -26 18 -29 22 -1 27 3 29 21 2 26 1 26 -47
8z"/>
<path d="M1715 2390 c-4 -6 -2 -17 4 -23 15 -15 25 -2 13 19 -7 12 -11 13 -17
4z"/>
<path d="M5090 2425 c0 -13 43 -85 52 -85 5 0 8 3 6 8 -2 4 -12 24 -21 45 -10
20 -22 37 -27 37 -6 0 -10 -2 -10 -5z"/>
<path d="M5385 2360 c-3 -5 -1 -10 4 -10 6 0 11 5 11 10 0 6 -2 10 -4 10 -3 0
-8 -4 -11 -10z"/>
<path d="M5148 2279 c-25 -14 -22 -24 9 -38 21 -10 28 -9 34 1 13 20 11 34 -3
20 -7 -7 -19 -12 -27 -12 -11 0 -10 4 4 20 19 21 11 26 -17 9z"/>
<path d="M3406 2145 c-3 -9 0 -15 9 -15 9 0 12 6 9 15 -4 8 -7 15 -9 15 -2 0
-5 -7 -9 -15z"/>
<path d="M4250 2140 c0 -4 11 -10 25 -12 13 -3 22 -2 20 2 -7 11 -45 20 -45
10z"/>
<path d="M4895 2050 c-8 -13 15 -13 35 0 12 8 11 10 -7 10 -12 0 -25 -4 -28
-10z"/>
<path d="M4750 2023 c0 -6 8 -17 18 -24 16 -13 16 -13 2 6 -8 11 -16 22 -17
24 -2 2 -3 0 -3 -6z"/>
<path d="M1790 1899 c0 -5 5 -7 10 -4 6 3 10 8 10 11 0 2 -4 4 -10 4 -5 0 -10
-5 -10 -11z"/>
<path d="M1831 1854 c0 -11 3 -14 6 -6 3 7 2 16 -1 19 -3 4 -6 -2 -5 -13z"/>
<path d="M7001 1666 c-7 -8 -8 -17 -3 -19 4 -3 13 3 20 14 14 22 0 26 -17 5z"/>
<path d="M5580 1204 c0 -8 5 -12 10 -9 6 4 8 11 5 16 -9 14 -15 11 -15 -7z"/>
<path d="M5317 1363 c3 -7 -2 -24 -11 -38 -16 -24 -15 -25 4 -25 11 0 21 6 21
13 5 48 3 64 -7 64 -7 0 -10 -6 -7 -14z"/>
<path d="M5356 1364 c-9 -23 -2 -28 13 -10 7 8 8 17 3 20 -6 3 -13 -1 -16 -10z"/>
<path d="M5370 1338 c-11 -12 -18 -23 -16 -25 7 -8 46 22 46 34 0 18 -6 16
-30 -9z"/>
<path d="M5280 1335 c0 -8 5 -15 10 -15 6 0 10 7 10 15 0 8 -4 15 -10 15 -5 0
-10 -7 -10 -15z"/>
<path d="M4840 1156 c0 -8 -5 -16 -12 -18 -8 -3 -9 -6 -1 -11 5 -3 15 5 21 18
7 15 8 25 2 25 -6 0 -10 -6 -10 -14z"/>
<path d="M4960 1290 c0 -5 5 -10 11 -10 5 0 7 5 4 10 -3 6 -8 10 -11 10 -2 0
-4 -4 -4 -10z"/>
<path d="M5515 1310 c3 -5 11 -10 16 -10 6 0 7 5 4 10 -3 6 -11 10 -16 10 -6
0 -7 -4 -4 -10z"/>
<path d="M6970 1171 c0 -10 19 -25 25 -20 1 2 -3 10 -11 17 -8 7 -14 8 -14 3z"/>
<path d="M2096 1031 c-3 -5 1 -11 9 -15 8 -3 15 -1 15 4 0 13 -18 22 -24 11z"/>
<path d="M3960 1000 c0 -5 5 -10 11 -10 5 0 7 5 4 10 -3 6 -8 10 -11 10 -2 0
-4 -4 -4 -10z"/>
<path d="M4330 916 c0 -2 8 -10 18 -17 15 -13 16 -12 3 4 -13 16 -21 21 -21
13z"/>
<path d="M2275 780 c-3 -5 -2 -10 4 -10 5 0 13 5 16 10 3 6 2 10 -4 10 -5 0
-13 -4 -16 -10z"/>
<path d="M2318 665 c-3 -14 -4 -25 -3 -25 2 0 10 11 19 25 13 20 14 25 2 25
-7 0 -16 -11 -18 -25z"/>
<path d="M2085 650 c-2 -3 0 -11 4 -18 5 -9 12 -7 25 7 18 19 17 20 -4 18 -12
-1 -23 -4 -25 -7z"/>
<path d="M2757 593 c-4 -3 -7 -11 -7 -17 0 -6 5 -5 12 2 6 6 9 14 7 17 -3 3
-9 2 -12 -2z"/>
<path d="M5259 4172 c-15 -13 -19 -21 -11 -26 7 -4 12 -2 12 4 0 7 6 10 14 7
14 -5 36 10 36 25 0 14 -27 9 -51 -10z"/>
<path d="M5194 4107 c-22 -25 -74 -130 -74 -148 0 -6 -22 -49 -50 -95 -55 -91
-57 -96 -35 -88 8 4 22 1 30 -6 13 -10 16 -7 21 19 4 17 16 39 28 49 42 32 89
93 101 129 11 32 11 39 -3 49 -13 10 -13 14 2 45 10 19 13 35 7 37 -5 2 -7 10
-4 18 8 20 -1 17 -23 -9z m-4 -86 c0 -11 -5 -23 -11 -27 -15 -9 -33 12 -26 30
9 23 37 20 37 -3z"/>
<path d="M5736 4115 c-3 -9 -6 -22 -5 -28 0 -7 5 -1 10 12 5 13 8 26 5 28 -2
2 -6 -3 -10 -12z"/>
<path d="M5706 4021 c-19 -20 -26 -36 -22 -47 6 -16 8 -15 26 1 11 10 20 26
20 37 0 10 5 18 10 18 6 0 10 5 10 10 0 18 -15 11 -44 -19z"/>
<path d="M5871 3993 c-10 -31 -22 -48 -43 -59 -28 -14 -54 -11 -43 6 3 5 1 11
-4 14 -5 3 -7 15 -4 26 7 28 -11 25 -31 -5 -10 -16 -26 -25 -41 -25 -21 0 -25
-5 -25 -29 0 -16 -3 -36 -6 -45 -4 -11 0 -16 15 -16 24 0 20 -22 -12 -57 -23
-26 -67 -31 -67 -9 0 8 -4 17 -9 20 -15 10 -5 -55 13 -75 16 -19 17 -18 65 13
34 23 48 38 45 49 -4 15 11 28 42 34 40 9 56 22 85 71 59 97 59 97 103 73 20
-11 42 -16 49 -12 7 4 18 8 26 10 13 2 31 21 31 34 0 4 -28 10 -62 14 -120 15
-113 17 -127 -32z m-107 -69 c4 -10 1 -14 -6 -12 -15 5 -23 28 -10 28 5 0 13
-7 16 -16z"/>
<path d="M6120 4027 c0 -2 12 -17 26 -33 l26 -29 -16 33 c-9 17 -21 32 -26 32
-6 0 -10 -2 -10 -3z"/>
<path d="M6170 3952 c0 -6 -7 -18 -16 -27 -15 -15 -15 -18 -1 -32 13 -14 17
-13 36 6 11 11 23 16 26 11 10 -16 21 -11 22 9 1 11 -5 22 -13 25 -9 3 -12 1
-9 -4 10 -16 -7 -12 -27 7 -10 9 -18 11 -18 5z"/>
<path d="M400 3939 c0 -5 5 -7 10 -4 6 3 10 8 10 11 0 2 -4 4 -10 4 -5 0 -10
-5 -10 -11z"/>
<path d="M6405 3931 c-10 -17 10 -20 35 -5 l25 13 -27 1 c-15 0 -29 -4 -33 -9z"/>
<path d="M6080 3915 c0 -10 7 -15 18 -13 21 4 19 22 -2 26 -10 2 -16 -3 -16
-13z"/>
<path d="M6635 3919 c-11 -17 1 -21 15 -4 8 9 8 15 2 15 -6 0 -14 -5 -17 -11z"/>
<path d="M5975 3910 c3 -5 8 -10 11 -10 2 0 4 5 4 10 0 6 -5 10 -11 10 -5 0
-7 -4 -4 -10z"/>
<path d="M6495 3910 c-3 -5 1 -10 10 -10 9 0 13 5 10 10 -3 6 -8 10 -10 10 -2
0 -7 -4 -10 -10z"/>
<path d="M4252 3887 c-7 -8 -9 -17 -5 -20 3 -4 -4 -19 -18 -34 -13 -14 -18
-23 -12 -19 9 5 11 2 7 -8 -3 -9 -10 -16 -15 -16 -5 0 -4 -9 3 -20 16 -25 1
-53 -29 -58 -11 -2 -35 -16 -54 -32 l-34 -28 21 -20 22 -21 21 23 c11 12 21
29 21 37 0 8 19 22 43 33 l42 18 0 58 c1 34 6 65 14 74 12 15 12 19 -1 32 -12
13 -16 13 -26 1z"/>
<path d="M4382 3880 c-19 -30 -16 -69 6 -65 9 2 21 4 26 4 5 1 3 8 -4 16 -10
12 -10 19 -2 27 7 7 12 18 12 25 0 20 -24 15 -38 -7z"/>
<path d="M6578 3883 c7 -3 16 -2 19 1 4 3 -2 6 -13 5 -11 0 -14 -3 -6 -6z"/>
<path d="M4457 3844 c-16 -9 -26 -18 -23 -21 3 -3 13 0 21 7 11 9 19 10 27 2
16 -16 42 -3 27 14 -14 17 -17 17 -52 -2z"/>
<path d="M4727 3825 c-4 -11 -16 -26 -27 -32 -17 -11 -18 -10 -13 5 4 13 3 14
-6 6 -6 -6 -14 -27 -18 -47 -6 -39 2 -46 37 -27 16 9 22 5 34 -17 l15 -28 0
40 c0 22 -4 58 -8 80 -6 32 -9 36 -14 20z"/>
<path d="M5487 3793 c-3 -5 -1 -19 4 -32 10 -26 22 -20 34 17 5 18 2 22 -14
22 -11 0 -22 -3 -24 -7z"/>
<path d="M5770 3776 c0 -8 5 -18 10 -21 6 -3 10 3 10 14 0 12 -4 21 -10 21 -5
0 -10 -6 -10 -14z"/>
<path d="M6655 3770 c3 -5 8 -10 11 -10 2 0 4 5 4 10 0 6 -5 10 -11 10 -5 0
-7 -4 -4 -10z"/>
<path d="M4950 3706 c-8 -11 -9 -20 -1 -33 10 -17 10 -17 11 3 0 11 5 25 12
32 8 8 8 12 1 12 -6 0 -16 -7 -23 -14z"/>
<path d="M5310 3689 c0 -5 5 -7 10 -4 6 3 10 8 10 11 0 2 -4 4 -10 4 -5 0 -10
-5 -10 -11z"/>
<path d="M4272 3678 c-7 -7 -12 -8 -13 -2 0 5 -7 -13 -14 -41 -16 -57 -19
-121 -7 -129 9 -5 34 73 47 147 8 40 6 44 -13 25z"/>
<path d="M5313 3645 c-7 -8 -13 -22 -13 -32 0 -15 3 -15 22 5 14 14 19 25 13
31 -6 6 -15 4 -22 -4z"/>
<path d="M3950 3626 c0 -3 9 -10 19 -16 15 -7 22 -7 27 2 4 7 4 10 -1 6 -4 -4
-16 -3 -26 3 -11 5 -19 7 -19 5z"/>
<path d="M4926 3471 c-4 -7 -5 -15 -2 -18 9 -9 19 4 14 18 -4 11 -6 11 -12 0z"/>
<path d="M4177 3293 c-12 -12 -7 -22 8 -17 8 4 15 10 15 15 0 11 -14 12 -23 2z"/>
<path d="M6810 2140 c24 -21 60 -27 60 -10 0 13 -34 30 -61 30 l-22 0 23 -20z"/>
<path d="M7140 2101 c0 -5 7 -14 15 -21 13 -10 15 -9 15 9 0 12 -6 21 -15 21
-8 0 -15 -4 -15 -9z"/>
<path d="M7030 2080 c0 -5 7 -10 15 -10 8 0 15 5 15 10 0 6 -7 10 -15 10 -8 0
-15 -4 -15 -10z"/>
<path d="M6760 2070 c0 -8 14 -12 91 -25 8 -2 31 0 50 5 l34 8 -45 3 c-83 4
-98 6 -114 12 -9 4 -16 2 -16 -3z"/>
<path d="M7110 2030 c0 -13 20 -13 40 0 12 8 9 10 -12 10 -16 0 -28 -4 -28
-10z"/>
<path d="M6820 2011 c0 -10 30 -24 37 -17 3 2 -5 9 -16 16 -12 6 -21 7 -21 1z"/>
<path d="M7040 2003 c-31 -5 -56 -49 -33 -57 23 -9 26 -7 13 9 -11 14 -4 15
66 13 74 -3 79 -2 82 18 3 20 -2 21 -50 21 -29 -1 -64 -2 -78 -4z"/>
<path d="M6860 1964 c0 -10 28 -34 40 -34 7 0 9 7 6 16 -3 9 -6 18 -6 20 0 2
-9 4 -20 4 -11 0 -20 -3 -20 -6z"/>
<path d="M7018 1919 c4 -4 26 -9 49 -11 23 -2 39 0 35 3 -4 4 -26 9 -49 11
-23 2 -39 0 -35 -3z"/>
<path d="M7125 1910 c4 -6 11 -8 16 -5 14 9 11 15 -7 15 -8 0 -12 -5 -9 -10z"/>
<path d="M6760 1879 c0 -5 9 -9 20 -9 11 0 20 4 20 8 0 4 -9 8 -20 9 -11 1
-20 -2 -20 -8z"/>
<path d="M7115 1881 c-6 -11 34 -36 43 -26 3 3 -4 8 -16 12 -12 3 -19 9 -16
14 3 5 3 9 0 9 -3 0 -7 -4 -11 -9z"/>
<path d="M7020 1871 c0 -5 -6 -8 -12 -7 -7 0 -14 -3 -15 -9 -3 -9 4 -10 38 -6
5 0 7 6 3 13 -5 8 -2 9 9 5 10 -3 17 -2 17 3 0 6 -9 10 -20 10 -11 0 -20 -4
-20 -9z"/>
<path d="M7090 1840 c-13 -8 -12 -10 3 -10 10 0 16 -4 13 -9 -3 -5 8 -14 24
-20 18 -6 30 -6 30 0 0 5 -10 9 -22 10 -21 1 -20 2 6 13 l28 13 -23 6 c-32 9
-41 8 -59 -3z"/>
<path d="M7002 1813 c-20 -8 37 -35 60 -28 16 6 16 8 4 21 -15 14 -40 17 -64
7z"/>
<path d="M6958 1783 c7 -3 16 -2 19 1 4 3 -2 6 -13 5 -11 0 -14 -3 -6 -6z"/>
</g>
</svg>
